<?xml version="1.0" encoding="UTF-8"?>
<svg version="1.1" xmlns="http://www.w3.org/2000/svg" width="480" height="718">
<path d="M0 0 C2.31 1.32 4.62 2.64 7 4 C9.475 2.02 9.475 2.02 12 0 C12.97608217 2.92824652 13.08226668 4.95613276 13 8 C15.31 8 17.62 8 20 8 C19.690625 8.5775 19.38125 9.155 19.0625 9.75 C17.63452043 12.7646204 17.63452043 12.7646204 17 16 C18.39588754 17.64594139 18.39588754 17.64594139 20 19 C20 19.66 20 20.32 20 21 C17.69 21 15.38 21 13 21 C12.67 23.31 12.34 25.62 12 28 C13.25490234 28.03867188 13.25490234 28.03867188 14.53515625 28.078125 C28.29512803 28.74859982 40.45521067 32.50824605 53.05078125 37.828125 C55.78085562 39.12308916 55.78085562 39.12308916 58 39 C58.33 37.35 58.66 35.7 59 34 C58.01 33.319375 58.01 33.319375 57 32.625 C56.34 32.08875 55.68 31.5525 55 31 C55 30.34 55 29.68 55 29 C57.475 28.01 57.475 28.01 60 27 C60 24.36 60 21.72 60 19 C60.763125 19.33 61.52625 19.66 62.3125 20 C64.99069135 21.17436686 64.99069135 21.17436686 68 21 C69.0260734 19.68662604 70.02727325 18.35335895 71 17 C71.66 17 72.32 17 73 17 C73.33 18.98 73.66 20.96 74 23 C76.64 22.67 79.28 22.34 82 22 C80.125 27.75 80.125 27.75 79 30 C79.804375 30.268125 80.60875 30.53625 81.4375 30.8125 C82.283125 31.204375 83.12875 31.59625 84 32 C84.33 32.99 84.66 33.98 85 35 C81.535 35.495 81.535 35.495 78 36 C78.99 39.96 78.99 39.96 80 44 C77.36 43.34 74.72 42.68 72 42 C71.34 43.65 70.68 45.3 70 47 C71.14275391 47.8353125 71.14275391 47.8353125 72.30859375 48.6875 C81.78229418 55.68928608 90.46165403 62.87977314 98 72 C98.804375 72.94875 99.60875 73.8975 100.4375 74.875 C102 77 102 77 102 79 C103.65 78.01 105.3 77.02 107 76 C106.649375 75.236875 106.29875 74.47375 105.9375 73.6875 C105 71 105 71 106 68 C107.98 68 109.96 68 112 68 C112.66 66.35 113.32 64.7 114 63 C117 64 117 64 119 67 C121.64 66.34 124.28 65.68 127 65 C126.67 67.31 126.34 69.62 126 72 C127.98 72.66 129.96 73.32 132 74 C131 77 131 77 128 79 C128.66 81.64 129.32 84.28 130 87 C126.04 86.505 126.04 86.505 122 86 C121.67 88.31 121.34 90.62 121 93 C118 92 118 92 116.8125 89.9375 C116.4103125 88.9784375 116.4103125 88.9784375 116 88 C113.03 88.99 113.03 88.99 110 90 C110.45890625 91.00417969 110.9178125 92.00835937 111.390625 93.04296875 C117.7860746 107.22274351 122.28473289 120.27641703 122 136 C124.31 135.67 126.62 135.34 129 135 C129 132.69 129 130.38 129 128 C129.7425 128.33 130.485 128.66 131.25 129 C134.13883312 130.22782871 134.13883312 130.22782871 138 130 C140.22743787 128.58022091 140.22743787 128.58022091 142 127 C142.33 129.31 142.66 131.62 143 134 C145.31 134.33 147.62 134.66 150 135 C149.5359375 135.86625 149.5359375 135.86625 149.0625 136.75 C147.63452043 139.7646204 147.63452043 139.7646204 147 143 C148.39588754 144.64594139 148.39588754 144.64594139 150 146 C150 146.66 150 147.32 150 148 C147.69 148 145.38 148 143 148 C143 150.64 143 153.28 143 156 C142.4225 155.690625 141.845 155.38125 141.25 155.0625 C138.2375338 153.61927636 138.2375338 153.61927636 135 153 C132.27018168 154.35400645 132.27018168 154.35400645 130 156 C129.34 153.69 128.68 151.38 128 149 C126.35 148.67 124.7 148.34 123 148 C122.87044922 149.56234375 122.87044922 149.56234375 122.73828125 151.15625 C121.39709993 165.4795947 118.01138902 178.03183994 111.13671875 190.7421875 C109.85010521 192.87642674 109.85010521 192.87642674 110 195 C111.65 195.66 113.3 196.32 115 197 C116.65 195.35 118.3 193.7 120 192 C120.33 194.31 120.66 196.62 121 199 C123.97 198.67 126.94 198.34 130 198 C130 198.66 130 199.32 130 200 C129.34 200 128.68 200 128 200 C127.05392193 202.74961511 127.05392193 202.74961511 127 206 C129.31273442 208.8971941 129.31273442 208.8971941 132 211 C129.69 211.33 127.38 211.66 125 212 C125 214.64 125 217.28 125 220 C124.236875 219.67 123.47375 219.34 122.6875 219 C120.00930865 217.82563314 120.00930865 217.82563314 117 218 C115.9739266 219.31337396 114.97272675 220.64664105 114 222 C113.34 222 112.68 222 112 222 C111.67 219.69 111.34 217.38 111 215 C108.36 215.33 105.72 215.66 103 216 C104.98 212.04 104.98 212.04 107 208 C104.03 207.01 104.03 207.01 101 206 C100.57589844 206.49628906 100.15179688 206.99257813 99.71484375 207.50390625 C97.82962956 209.68744005 95.92030616 211.84727583 94 214 C93.24203125 214.86044922 93.24203125 214.86044922 92.46875 215.73828125 C86.30031625 222.33158161 77.41830847 229.62147709 69 233 C68.01 233 67.02 233 66 233 C66.99 236.465 66.99 236.465 68 240 C70.64 239.34 73.28 238.68 76 238 C75.67 240.64 75.34 243.28 75 246 C76.65 246.66 78.3 247.32 80 248 C80 248.66 80 249.32 80 250 C78.02 250.99 76.04 251.98 74 253 C74.99 256.465 74.99 256.465 76 260 C73.36 259.67 70.72 259.34 68 259 C67.54625 259.825 67.0925 260.65 66.625 261.5 C65.820625 262.7375 65.820625 262.7375 65 264 C64.34 264 63.68 264 63 264 C62.01 262.02 61.02 260.04 60 258 C57.69 258.66 55.38 259.32 53 260 C53.99 256.04 53.99 256.04 55 252 C53.02 251.01 51.04 250.02 49 249 C50.39195915 246.2160817 52.15575779 246.02101003 55 245 C54.67 243.35 54.34 241.7 54 240 C49.46125082 240.58500968 49.46125082 240.58500968 44.9765625 241.4765625 C39.16993926 242.84162831 33.375813 243.41185383 27.4375 243.8125 C26.64633789 243.87759766 25.85517578 243.94269531 25.04003906 244.00976562 C18.00833677 244.41191022 12.10191593 242.9555557 6.125 239.1875 C0.70043987 233.60339398 0.57593919 228.13218433 0.65942383 220.77197266 C0.65898575 219.75672516 0.65854767 218.74147766 0.65809631 217.69546509 C0.66018047 214.35146622 0.68349449 211.00797341 0.70703125 207.6640625 C0.71262852 205.340935 0.716898 203.01780395 0.71989441 200.69467163 C0.73133282 194.58886896 0.76079166 188.48328135 0.79400635 182.37756348 C0.82472869 176.14366566 0.83840439 169.909733 0.85351562 163.67578125 C0.88566212 151.45041128 0.93842214 139.2252572 1 127 C-10.88 127 -22.76 127 -35 127 C-35 123.7 -35 120.4 -35 117 C-23.12 117 -11.24 117 1 117 C0.96039853 105.52646588 0.96039853 105.52646588 0.90991211 94.05297852 C0.90699289 92.61995518 0.90444434 91.18693102 0.90234375 89.75390625 C0.89722778 89.00330933 0.89211182 88.2527124 0.88684082 87.47937012 C0.88653008 85.65252399 0.93768887 83.82578317 1 82 C2 81 2 81 3.8125 80.8671875 C4.534375 80.86976563 5.25625 80.87234375 6 80.875 C6.721875 80.87242187 7.44375 80.86984375 8.1875 80.8671875 C10 81 10 81 11 82 C11.0885067 84.59334148 11.1153317 87.16062579 11.09765625 89.75390625 C11.09664917 90.44093628 11.09564209 91.12796631 11.09460449 91.83581543 C11.08935776 94.41139384 11.07539659 96.98694853 11.0625 99.5625 C11.041875 105.316875 11.02125 111.07125 11 117 C22.88 117 34.76 117 47 117 C47 120.3 47 123.6 47 127 C35.12 127 23.24 127 11 127 C11.08540788 140.11705309 11.17910903 153.23397425 11.28752708 166.35085773 C11.33753264 172.44115725 11.38386231 178.53143906 11.421875 184.62182617 C11.45867395 190.49630319 11.50501921 196.37063356 11.55806351 202.24498558 C11.57663615 204.48930483 11.59173342 206.73365555 11.60334396 208.97802162 C11.62015727 212.11481459 11.6491805 215.25126958 11.68115234 218.38793945 C11.68331253 219.32157822 11.68547272 220.25521698 11.68769836 221.21714783 C11.69886185 222.07110138 11.71002533 222.92505493 11.7215271 223.80488586 C11.72705786 224.54692922 11.73258862 225.28897257 11.73828697 226.05350208 C11.89850273 228.32320647 11.89850273 228.32320647 14 231 C25.1286904 235.41693034 41.58118226 228.85416219 52 224.8125 C73.68772459 215.19294474 89.46648393 200.14175005 98.1015625 177.80834961 C106.81472611 153.3745607 104.46144365 126.21303252 93.859375 102.78515625 C89.95079808 94.60951134 84.92668595 87.79400585 79 81 C79 80.34 79 79.68 79 79 C78.34 79 77.68 79 77 79 C75.82050745 77.5651969 74.64348105 76.12827319 73.48095703 74.6796875 C70.97550702 71.83802972 68.00253512 69.70298168 64.9375 67.5 C64.2762915 67.02224121 63.61508301 66.54448242 62.93383789 66.05224609 C41.89411922 51.16104003 16.58567643 45.61807572 -8.84375 49.65234375 C-33.2045718 54.45956793 -56.50233826 69.20824036 -70.5703125 89.6640625 C-79.11942955 102.57046121 -84.38065488 115.65532897 -87 131 C-87.13148438 131.71285156 -87.26296875 132.42570313 -87.3984375 133.16015625 C-91.6033347 159.92375871 -82.6423059 188.76772164 -67.74658203 210.85888672 C-65.36738672 214.09644293 -62.72065106 217.04965044 -60 220 C-59.42636719 220.72445312 -58.85273438 221.44890625 -58.26171875 222.1953125 C-45.25360873 238.28960383 -26.75288353 246.85379309 -7.9375 254.1875 C2.95792165 258.46826308 11.70659201 263.35232539 17.57373047 273.80322266 C19.91401459 279.40409689 19.36787901 285.40806615 19.29296875 291.37109375 C19.28872391 292.64855972 19.28447906 293.9260257 19.28010559 295.24220276 C19.2662045 298.61748297 19.2393115 301.99214052 19.20599365 305.36724854 C19.17515321 308.81964779 19.1615706 312.2721117 19.14648438 315.72460938 C19.11347325 322.48324326 19.06331661 329.24158573 19 336 C20.09957031 336.13277344 21.19914063 336.26554687 22.33203125 336.40234375 C26.58362281 337.09509509 28.0544116 337.8951906 31 341 C32.04401991 342.98032347 32.96465562 344.99726462 33.890625 347.03515625 C35.66302911 350.1743086 38.14456239 351.84255825 41 354 C42.73202854 357.46405709 42.47430188 361.21217247 42 365 C40.14295876 368.02628943 38.00517876 369.99507386 35.4375 372.4375 C32.84521315 374.87276556 32.84521315 374.87276556 31.625 378.125 C29.423413 382.02011546 27.19020305 382.67677798 23 384 C21.68 384 20.36 384 19 384 C19 399.84 19 415.68 19 432 C12.07 432 5.14 432 -2 432 C-2.70331247 428.48343764 -3.1237292 425.94419857 -3.11352539 422.48510742 C-3.11344986 421.62459274 -3.11337433 420.76407806 -3.11329651 419.87748718 C-3.10813522 418.9627211 -3.10297394 418.04795502 -3.09765625 417.10546875 C-3.09553383 415.68443596 -3.09553383 415.68443596 -3.09336853 414.23469543 C-3.08778611 411.21893105 -3.07523682 408.20324182 -3.0625 405.1875 C-3.05748273 403.13867295 -3.05292022 401.08984473 -3.04882812 399.04101562 C-3.03782243 394.02731494 -3.02056988 389.0136702 -3 384 C-3.6906958 383.90420654 -4.3813916 383.80841309 -5.09301758 383.7097168 C-6.44882935 383.48795776 -6.44882935 383.48795776 -7.83203125 383.26171875 C-8.72897705 383.12467529 -9.62592285 382.98763184 -10.55004883 382.84643555 C-13.61486962 381.78756821 -14.25621999 380.65997703 -15.6875 377.8125 C-16.04714844 377.01328125 -16.40679687 376.2140625 -16.77734375 375.390625 C-18.46996765 372.08108561 -20.83510649 369.90380425 -23.546875 367.41015625 C-25.32872395 365.68099638 -25.95295416 364.56340258 -26.16015625 362.08203125 C-26.00096308 358.38238187 -25.82486994 355.8986838 -23.25390625 353.09765625 C-21.82750329 351.94344761 -20.38570143 350.80802903 -18.9296875 349.69140625 C-16.04007181 347.15860545 -15.34395346 344.56147667 -14 341 C-12.3125 338.625 -12.3125 338.625 -10 337 C-7.36 336.67 -4.72 336.34 -2 336 C-2.33 324.78 -2.66 313.56 -3 302 C-3.66 303.32 -4.32 304.64 -5 306 C-4.01 307.485 -4.01 307.485 -3 309 C-3 309.99 -3 310.98 -3 312 C-4.98 312 -6.96 312 -9 312 C-9 314.31 -9 316.62 -9 319 C-9.99 319 -10.98 319 -12 319 C-12 318.34 -12 317.68 -12 317 C-15.38391693 315.93648325 -16.5804634 315.78557018 -19.8125 317.4375 C-20.534375 317.953125 -21.25625 318.46875 -22 319 C-22.495 315.535 -22.495 315.535 -23 312 C-25.31 311.67 -27.62 311.34 -30 311 C-29.67 310.01 -29.34 309.02 -29 308 C-28.34 308 -27.68 308 -27 308 C-26.74930087 305.62570704 -26.74930087 305.62570704 -27 303 C-28.43750191 301.31201173 -28.43750191 301.31201173 -30 300 C-30 299.34 -30 298.68 -30 298 C-27.36 298 -24.72 298 -22 298 C-22 295.69 -22 293.38 -22 291 C-21.4225 291.309375 -20.845 291.61875 -20.25 291.9375 C-17.2375338 293.38072364 -17.2375338 293.38072364 -14 294 C-11.27018168 292.64599355 -11.27018168 292.64599355 -9 291 C-9 293.64 -9 296.28 -9 299 C-6.69 299 -4.38 299 -2 299 C-2.25596554 296.26869707 -2.52916587 293.54098536 -2.8125 290.8125 C-2.88275391 290.04357422 -2.95300781 289.27464844 -3.02539062 288.48242188 C-3.50624668 284.0008434 -3.93440863 280.48718546 -7 277 C-14.95407435 271.40327778 -24.68068759 268.23069032 -33.60742188 264.54882812 C-40.78560067 261.53686897 -47.46681471 258.24209566 -54 254 C-54.99 255.98 -55.98 257.96 -57 260 C-56.360625 260.268125 -55.72125 260.53625 -55.0625 260.8125 C-53 262 -53 262 -52 265 C-53.98 265.33 -55.96 265.66 -58 266 C-58 268.31 -58 270.62 -58 273 C-62 272 -62 272 -63.9375 271.1875 C-66.27619352 270.75043937 -66.27619352 270.75043937 -68.75 272.9375 C-69.4925 273.618125 -70.235 274.29875 -71 275 C-71.495 271.535 -71.495 271.535 -72 268 C-74.64 268 -77.28 268 -80 268 C-79.690625 267.401875 -79.38125 266.80375 -79.0625 266.1875 C-77.89790296 263.91043228 -77.89790296 263.91043228 -77 261 C-77.66 260.54625 -78.32 260.0925 -79 259.625 C-79.99 258.820625 -79.99 258.820625 -81 258 C-81 257.34 -81 256.68 -81 256 C-78.03 255.01 -78.03 255.01 -75 254 C-75 251.69 -75 249.38 -75 247 C-74.2575 247.350625 -73.515 247.70125 -72.75 248.0625 C-69.8677274 249.04509293 -68.78823655 249.0326802 -66 248 C-66 246.68 -66 245.36 -66 244 C-67.62626404 242.61767557 -69.2925002 241.28062485 -71 240 C-71 239.34 -71 238.68 -71 238 C-71.66 238 -72.32 238 -73 238 C-82.17608988 229.34471522 -88.90885496 217.90695658 -95 207 C-96.32 207.99 -97.64 208.98 -99 210 C-98.67 211.98 -98.34 213.96 -98 216 C-99.6396875 215.8453125 -99.6396875 215.8453125 -101.3125 215.6875 C-102.529375 215.790625 -103.74625 215.89375 -105 216 C-107.00864359 218.3726974 -107.00864359 218.3726974 -108 221 C-109.70840281 219.36587557 -110.93453047 218.13093906 -112 216 C-115.96 216.99 -115.96 216.99 -120 218 C-119.67 215.36 -119.34 212.72 -119 210 C-120.65 209.34 -122.3 208.68 -124 208 C-124 207.01 -124 206.02 -124 205 C-121.03 204.01 -121.03 204.01 -118 203 C-118.495 202.05125 -118.99 201.1025 -119.5 200.125 C-121 197 -121 197 -121 195 C-118.36 195.33 -115.72 195.66 -113 196 C-112.01 194.02 -111.02 192.04 -110 190 C-108.49440461 191.96382007 -107.10868317 193.78263366 -106 196 C-104.02 195.67 -102.04 195.34 -100 195 C-100.32613281 194.07960938 -100.65226562 193.15921875 -100.98828125 192.2109375 C-105.98052262 177.87257809 -108.46798409 164.15328086 -109 149 C-111.31 149 -113.62 149 -116 149 C-116 151.31 -116 153.62 -116 156 C-116.598125 155.690625 -117.19625 155.38125 -117.8125 155.0625 C-120.08956772 153.89790296 -120.08956772 153.89790296 -123 153 C-124.36733028 153.95298777 -125.70264493 154.95374591 -127 156 C-127.66 156 -128.32 156 -129 156 C-129 153.69 -129 151.38 -129 149 C-131.64 148.67 -134.28 148.34 -137 148 C-135.68 146.35 -134.36 144.7 -133 143 C-133.495 141.8553125 -133.495 141.8553125 -134 140.6875 C-135 138 -135 138 -135 135 C-133.02 134.67 -131.04 134.34 -129 134 C-128.67 132.02 -128.34 130.04 -128 128 C-127.2575 128.515625 -126.515 129.03125 -125.75 129.5625 C-123.20915447 131.2067231 -123.20915447 131.2067231 -120.9375 130.8125 C-118.90492826 129.96013121 -116.9429341 129.04085756 -115 128 C-115 130.64 -115 133.28 -115 136 C-112.69 136 -110.38 136 -108 136 C-108.05220703 134.27136719 -108.05220703 134.27136719 -108.10546875 132.5078125 C-108.10063227 128.1066194 -107.37213384 124.1324574 -106.3125 119.875 C-106.13460937 119.14361816 -105.95671875 118.41223633 -105.7734375 117.65869141 C-103.34532819 108.0027705 -100.41832606 98.4285072 -95 90 C-97.97 89.505 -97.97 89.505 -101 89 C-101.99 90.32 -102.98 91.64 -104 93 C-104.99 92.67 -105.98 92.34 -107 92 C-107.33 90.35 -107.66 88.7 -108 87 C-110.64 87.33 -113.28 87.66 -116 88 C-115.67 87.236875 -115.34 86.47375 -115 85.6875 C-113.82563314 83.00930865 -113.82563314 83.00930865 -114 80 C-116.4390706 77.79857668 -116.4390706 77.79857668 -119 76 C-116.09399739 74.74335022 -114.20395416 74 -111 74 C-111.66 71.36 -112.32 68.72 -113 66 C-110.36 66.66 -107.72 67.32 -105 68 C-104.319375 67.01 -104.319375 67.01 -103.625 66 C-103.08875 65.34 -102.5525 64.68 -102 64 C-101.34 64 -100.68 64 -100 64 C-99.34 65.65 -98.68 67.3 -98 69 C-95.69 69 -93.38 69 -91 69 C-91.66666667 71.66666667 -92.33333333 74.33333333 -93 77 C-91.35 77.66 -89.7 78.32 -88 79 C-87.59652344 78.37996094 -87.19304687 77.75992188 -86.77734375 77.12109375 C-82.51364331 70.90206571 -77.8189048 65.51698837 -72.5 60.1875 C-71.88374756 59.56609131 -71.26749512 58.94468262 -70.63256836 58.30444336 C-66.37383624 54.1086122 -61.86589446 50.46958736 -57 47 C-57.99 45.02 -57.99 45.02 -59 43 C-61.76276177 43.52268466 -64.3260876 44.10869587 -67 45 C-66.67 42.36 -66.34 39.72 -66 37 C-68.31 36.34 -70.62 35.68 -73 35 C-71.71034824 33.62437146 -70.37310707 32.29233607 -69 31 C-68.34 31 -67.68 31 -67 31 C-68.32 28.36 -69.64 25.72 -71 23 C-68.36 23 -65.72 23 -63 23 C-62.34 21.02 -61.68 19.04 -61 17 C-59.02 18.65 -57.04 20.3 -55 22 C-54.401875 21.649375 -53.80375 21.29875 -53.1875 20.9375 C-51 20 -51 20 -48 21 C-48.33 22.98 -48.66 24.96 -49 27 C-47.02 27.66 -45.04 28.32 -43 29 C-43 29.66 -43 30.32 -43 31 C-45 32.625 -45 32.625 -47 34 C-46.505 36.97 -46.505 36.97 -46 40 C-44.83726562 39.46890625 -43.67453125 38.9378125 -42.4765625 38.390625 C-34.25965353 34.72943751 -26.17870656 31.44803825 -17.375 29.5 C-16.66682129 29.34047852 -15.95864258 29.18095703 -15.22900391 29.01660156 C-10.09621972 27.9734213 -5.23332734 27.87662097 0 28 C-0.33 26.02 -0.66 24.04 -1 22 C-3.31 21.67 -5.62 21.34 -8 21 C-7.690625 20.4225 -7.38125 19.845 -7.0625 19.25 C-5.63452043 16.2353796 -5.63452043 16.2353796 -5 13 C-6.39588754 11.35405861 -6.39588754 11.35405861 -8 10 C-8 9.34 -8 8.68 -8 8 C-5.69 8 -3.38 8 -1 8 C-0.67 5.36 -0.34 2.72 0 0 Z " fill="#E4B25A" transform="translate(233,120)"/>
<path d="M0 0 C9.57 0 19.14 0 29 0 C29 41.25 29 82.5 29 125 C18.44 125 7.88 125 -3 125 C-12.15585043 113.25814601 -12.15585043 113.25814601 -14.1875 107.86328125 C-16.87809503 101.16047849 -20.16512318 94.98356087 -23.6875 88.6875 C-24.65187873 86.88004598 -25.61410085 85.07143972 -26.57421875 83.26171875 C-31.22834821 74.75479797 -36.14153362 66.39189648 -41 58 C-41.33 80.11 -41.66 102.22 -42 125 C-51.9 125 -61.8 125 -72 125 C-72 84.08 -72 43.16 -72 1 C-61.11 1 -50.22 1 -39 1 C-32.24960076 12.92570532 -25.50861103 24.85622383 -18.8125 36.8125 C-18.27995605 37.76310303 -17.74741211 38.71370605 -17.19873047 39.69311523 C-12.11144193 48.78370498 -7.05590855 57.89193435 -2 67 C-1.98969254 66.17536758 -1.97938507 65.35073517 -1.96876526 64.50111389 C-1.8709612 56.74594316 -1.76847166 48.99085547 -1.66066074 41.23581791 C-1.60539527 37.24846784 -1.55196963 33.26111048 -1.50268555 29.27368164 C-1.45509524 25.42868399 -1.40275464 21.58377818 -1.34705925 17.73888969 C-1.32661143 16.26883658 -1.30790244 14.79875826 -1.29092598 13.32866096 C-1.26693536 11.27638724 -1.2368741 9.22428853 -1.20532227 7.17211914 C-1.18977798 6.00185684 -1.1742337 4.83159454 -1.15821838 3.62586975 C-1 1 -1 1 0 0 Z " fill="#FC0C24" transform="translate(183,561)"/>
<path d="M0 0 C9.24 0 18.48 0 28 0 C30.7276621 6.81915525 33.2355397 13.51674208 35.44140625 20.49609375 C35.922146 22.00087532 35.922146 22.00087532 36.41259766 23.53605652 C37.46595635 26.83546718 38.51429101 30.13645005 39.5625 33.4375 C41.07153834 38.17361695 42.5827415 42.90904256 44.09375 47.64453125 C44.48623428 48.87588806 44.87871857 50.10724487 45.28309631 51.37591553 C48.05721208 60.07176256 50.857258 68.75894367 53.67260933 77.4415226 C54.33884956 79.49660289 55.00448868 81.55187683 55.66990662 83.60722351 C55.88705102 84.27790643 56.10419542 84.94858934 56.32791996 85.63959599 C56.76262236 86.98226025 57.19731166 88.32492875 57.63198757 89.66760159 C58.70227908 92.97262492 59.77420179 96.27710391 60.84939575 99.58053589 C62.05133935 103.2735581 63.24656419 106.96873622 64.44140625 110.6640625 C64.98390015 112.32443794 64.98390015 112.32443794 65.53735352 114.01835632 C65.86348633 115.03017471 66.18961914 116.0419931 66.52563477 117.08447266 C66.81189224 117.96608063 67.09814972 118.8476886 67.39308167 119.75601196 C68 122 68 122 68 125 C57.77 125 47.54 125 37 125 C33 115 33 115 32 110 C19.46 110 6.92 110 -6 110 C-6.33 111.98 -6.66 113.96 -7 116 C-8.32 118.97 -9.64 121.94 -11 125 C-21.23 125 -31.46 125 -42 125 C-39.75004665 114.87520994 -39.75004665 114.87520994 -38.52636719 111.31445312 C-38.25084015 110.50493698 -37.97531311 109.69542084 -37.69143677 108.8613739 C-37.39623138 108.00993301 -37.101026 107.15849213 -36.796875 106.28125 C-36.48257538 105.36201248 -36.16827576 104.44277496 -35.8444519 103.49568176 C-34.81750589 100.49554332 -33.78382951 97.49777263 -32.75 94.5 C-32.02868495 92.3975336 -31.30782518 90.29491096 -30.58740234 88.19213867 C-29.11279406 83.88956922 -27.63578803 79.58783353 -26.15722656 75.28662109 C-24.15289574 69.45158533 -22.16338664 63.61160852 -20.1796875 57.76953125 C-13.61641544 38.45095683 -6.92229466 19.19363518 0 0 Z M13 54 C11.65909207 57.7681831 10.3285821 61.53995521 9 65.3125 C8.6184375 66.38435547 8.236875 67.45621094 7.84375 68.56054688 C7.4828125 69.58857422 7.121875 70.61660156 6.75 71.67578125 C6.24726563 73.0975769 6.24726563 73.0975769 5.734375 74.5480957 C4.85654047 77.05239079 4.85654047 77.05239079 5 80 C10.61 80 16.22 80 22 80 C20.36231563 70.99273599 17.13020303 62.57360642 14 54 C13.67 54 13.34 54 13 54 Z " fill="#FC0B24" transform="translate(411,561)"/>
<path d="M0 0 C9.9 0 19.8 0 30 0 C30.0093457 2.47765869 30.01869141 4.95531738 30.02832031 7.50805664 C30.06213103 15.70648267 30.11770279 23.90465807 30.18390274 32.10288334 C30.22336345 37.07210142 30.25555887 42.04114266 30.27099609 47.01049805 C30.28617188 51.80881725 30.32063393 56.60665025 30.36830902 61.40475273 C30.38311328 63.2326681 30.39104047 65.06065288 30.39188385 66.88862801 C30.39425816 69.45500267 30.42137397 72.02003873 30.45410156 74.58618164 C30.4490712 75.33712601 30.44404083 76.08807037 30.43885803 76.86177063 C30.5457838 82.30302685 31.89592375 85.50950385 35 90 C39.82749152 93.76544339 43.54439529 94.59765651 49.63671875 94.3203125 C54.29341856 93.68915649 57.05814229 91.99418314 60.25 88.625 C63.67981931 83.48027104 64.30103286 79.0948426 64.31884766 72.99682617 C64.32889328 72.20605682 64.3389389 71.41528748 64.34928894 70.60055542 C64.38007317 67.99803363 64.39714274 65.39561449 64.4140625 62.79296875 C64.43277799 60.98406596 64.45235169 59.17517186 64.4727478 57.36628723 C64.5240348 52.61362844 64.56367891 47.86094135 64.60089111 43.1081543 C64.64095226 38.25497457 64.69203498 33.4019122 64.7421875 28.54882812 C64.83890624 19.0326264 64.92230498 9.51637608 65 0 C74.9 0 84.8 0 95 0 C95.06802442 10.61459999 95.12295885 21.22905303 95.15543652 31.84382248 C95.17103134 36.77373158 95.19215547 41.70348262 95.22631836 46.63330078 C95.25913384 51.39900496 95.27689941 56.16455799 95.28463173 60.93036652 C95.29013568 62.74026109 95.30088252 64.55014825 95.31719017 66.35997772 C95.46160667 83.06569384 93.66413596 98.47941985 81.81640625 111.37890625 C70.0474024 121.88242581 56.44033662 125.88283909 41.03027344 125.17919922 C29.50190572 124.16166412 18.60778357 117.47463466 10.81640625 109.1953125 C0.01280812 96.13806057 -0.43119525 83.19071398 -0.29296875 66.9921875 C-0.2873652 65.05592174 -0.28309869 63.11965169 -0.28010559 61.18338013 C-0.2687166 56.11661794 -0.23930127 51.05011865 -0.20599365 45.98345947 C-0.17516385 40.80150914 -0.16157279 35.61951584 -0.14648438 30.4375 C-0.11442526 20.29153329 -0.06170659 10.14582976 0 0 Z " fill="#FC0D25" transform="translate(1,561)"/>
<path d="M0 0 C2.10699014 1.86552973 4.14214806 3.75798934 6.11328125 5.765625 C3.81237947 11.00771145 -0.28164082 14.56829566 -4.26171875 18.578125 C-5.03 19.37927734 -5.79828125 20.18042969 -6.58984375 21.00585938 C-7.33492188 21.75802734 -8.08 22.51019531 -8.84765625 23.28515625 C-9.86545166 24.32313354 -9.86545166 24.32313354 -10.90380859 25.38208008 C-12.88671875 26.765625 -12.88671875 26.765625 -15.01855469 26.55322266 C-17.81718306 25.37335136 -20.18595348 23.71857311 -22.69140625 22.01953125 C-30.28473678 17.68241541 -39.33707161 17.49604819 -47.73828125 19.41796875 C-55.95321507 22.38094024 -62.78420107 28.01642493 -66.88671875 35.765625 C-70.80798809 45.6791371 -70.92437019 53.8003929 -67.26953125 63.83203125 C-63.20501615 72.45477374 -56.6622283 77.42257374 -47.88671875 80.765625 C-38.80503696 83.58658828 -29.21932605 82.02342873 -20.88671875 77.765625 C-18.57671875 76.115625 -16.26671875 74.465625 -13.88671875 72.765625 C-7.28671875 79.365625 -0.68671875 85.965625 6.11328125 92.765625 C2.09012849 100.81193052 -6.68302893 105.57652306 -14.88671875 108.765625 C-33.28820285 114.76866779 -51.33684618 114.3723682 -68.76171875 105.578125 C-84.22088842 96.55073333 -94.944354 82.31087601 -99.62890625 65.02734375 C-103.44808352 46.95164857 -99.80682502 29.20446621 -89.88671875 13.765625 C-80.40619949 0.59803433 -65.64592325 -8.91671604 -49.6171875 -11.953125 C-31.70023746 -13.79864775 -14.61652827 -11.31346979 0 0 Z " fill="#FC0E26" transform="translate(363.88671875,573.234375)"/>
<path d="M0 0 C2.3125 1.4375 2.3125 1.4375 2.94993591 3.53288269 C3.40105398 7.14693438 3.4439261 10.71382883 3.42602539 14.34887695 C3.42617142 15.12989273 3.42631744 15.91090851 3.4264679 16.71559143 C3.4257737 19.28568339 3.41800446 21.85570202 3.41015625 24.42578125 C3.40829032 26.21225444 3.40686724 27.99872814 3.40586853 29.78520203 C3.40205716 34.47874371 3.39223867 39.17225427 3.38116455 43.86578369 C3.37092075 48.65856505 3.36636455 53.45135146 3.36132812 58.24414062 C3.35061514 67.64194073 3.33355531 77.03971777 3.3125 86.4375 C2.54204849 86.42833557 1.77159698 86.41917114 0.97779846 86.409729 C-2.55513961 86.37307136 -6.08803748 86.35049695 -9.62109375 86.328125 C-11.43885315 86.30613037 -11.43885315 86.30613037 -13.29333496 86.28369141 C-22.72311035 86.23896267 -30.7363953 87.32030755 -39.6875 90.4375 C-40.59886719 90.72625 -41.51023438 91.015 -42.44921875 91.3125 C-54.05588635 95.39396553 -66.82261023 104.14016535 -73.6875 114.4375 C-74.6775 114.4375 -75.6675 114.4375 -76.6875 114.4375 C-98.6875 76.70389344 -98.6875 76.70389344 -98.6875 64.4375 C-97.71329102 64.1065332 -96.73908203 63.77556641 -95.73535156 63.43457031 C-75.66632301 56.59524296 -55.88355761 49.50512513 -36.57519531 40.70556641 C-33.93812188 39.54755496 -31.29238872 38.5248265 -28.5859375 37.54296875 C-21.54942434 34.96863851 -21.54942434 34.96863851 -16.65869141 29.53808594 C-14.93830286 25.02016066 -14.07400166 20.37203025 -13.18701172 15.63476562 C-11.94297186 10.16244953 -9.43041695 3.27142703 -4.671875 0.08984375 C-2.6875 -0.5625 -2.6875 -0.5625 0 0 Z " fill="#FD0720" transform="translate(249.6875,1.5625)"/>
<path d="M0 0 C9.57 0 19.14 0 29 0 C29 41.25 29 82.5 29 125 C19.43 125 9.86 125 0 125 C-1.64190364 123.35809636 -1.12604049 121.48039829 -1.12698364 119.21691895 C-1.12980347 118.18204849 -1.13262329 117.14717804 -1.13552856 116.08094788 C-1.13350433 114.93597336 -1.1314801 113.79099884 -1.12939453 112.61132812 C-1.13114685 111.41309921 -1.13289917 110.2148703 -1.13470459 108.98033142 C-1.13836275 105.68495208 -1.1374897 102.38963516 -1.1343255 99.09425926 C-1.13180149 95.65272307 -1.13413956 92.21118962 -1.13571167 88.76965332 C-1.13753325 82.98917153 -1.13512737 77.20870251 -1.13037109 71.42822266 C-1.12492849 64.73616466 -1.12669116 58.04413713 -1.1321975 51.35207987 C-1.13672897 45.6162078 -1.13737901 39.88034492 -1.13475883 34.14447165 C-1.13319624 30.71439712 -1.13300179 27.28433693 -1.13629532 23.85426331 C-1.13970843 20.03238736 -1.13498373 16.2105458 -1.12939453 12.38867188 C-1.13141876 11.24369736 -1.13344299 10.09872284 -1.13552856 8.91905212 C-1.13270874 7.88418167 -1.12988892 6.84931122 -1.12698364 5.78308105 C-1.12660662 4.87825737 -1.12622959 3.97343369 -1.12584114 3.0411911 C-1 1 -1 1 0 0 Z " fill="#FC0F27" transform="translate(227,561)"/>
<path d="M0 0 C3.98574804 1.99287402 6.84897109 4.38382259 10.125 7.3125 C25.17276246 20.4039937 41.48054816 30.52806315 59 40 C57.07834693 50.24038805 54.51260266 60.01534368 50.9375 69.8125 C50.5971875 70.74852051 50.256875 71.68454102 49.90625 72.64892578 C48.26860609 77.02579995 46.62508655 81.09917045 44 85 C40.57387752 83.85795917 39.61288131 82.36296313 37.41894531 79.61767578 C35.06874962 76.9383233 32.28601251 74.9684109 29.375 72.9375 C28.76035889 72.5055835 28.14571777 72.07366699 27.51245117 71.62866211 C18.80326669 65.6513281 10.3309107 62.8175211 0 60 C0 40.2 0 20.4 0 0 Z " fill="#FC0A23" transform="translate(256,29)"/>
<path d="M0 0 C0 0.66 0 1.32 0 2 C-15.23522517 8.8355206 -30.56724059 15.12482147 -46.3125 20.6875 C-47.04619812 20.94897827 -47.77989624 21.21045654 -48.53582764 21.4798584 C-50.64216588 22.22798325 -52.75182042 22.96569141 -54.86328125 23.69921875 C-56.07282471 24.12033936 -57.28236816 24.54145996 -58.52856445 24.9753418 C-62.02279987 26.0067298 -65.38563846 26.57843525 -69 27 C-68.19446785 15.72254992 -63.09138342 8.76987149 -55 1 C-39.84860294 -11.14424955 -15.78426471 -10.92316869 0 0 Z " fill="#FB172E" transform="translate(220,35)"/>
<path d="M0 0 C2.19795444 3.29693166 2.24888604 4.27109857 2.24291992 8.09814453 C2.24599655 9.13576935 2.24907318 10.17339417 2.25224304 11.24246216 C2.24505753 12.36127777 2.23787201 13.48009338 2.23046875 14.6328125 C2.22978142 16.35417923 2.22978142 16.35417923 2.2290802 18.11032104 C2.22605808 20.53628575 2.21817302 22.96224851 2.20581055 25.38818359 C2.18753954 29.11693127 2.18530095 32.84543096 2.18554688 36.57421875 C2.18063235 38.9270855 2.17480432 41.27995055 2.16796875 43.6328125 C2.16685593 44.75567657 2.1657431 45.87854065 2.16459656 47.03543091 C2.15821671 48.0667514 2.15183685 49.0980719 2.14526367 50.16064453 C2.13954597 51.52940231 2.13954597 51.52940231 2.13371277 52.92581177 C2 55 2 55 1 56 C-0.51469448 56.23192865 -2.03754562 56.41215238 -3.5625 56.5625 C-4.38878906 56.64628906 -5.21507812 56.73007812 -6.06640625 56.81640625 C-6.70449219 56.87699219 -7.34257812 56.93757813 -8 57 C-7.67 56.34 -7.34 55.68 -7 55 C-4.36 54.67 -1.72 54.34 1 54 C0.67 42.78 0.34 31.56 0 20 C-0.66 21.32 -1.32 22.64 -2 24 C-1.34 24.99 -0.68 25.98 0 27 C0 27.99 0 28.98 0 30 C-1.98 30 -3.96 30 -6 30 C-6 32.31 -6 34.62 -6 37 C-6.99 37 -7.98 37 -9 37 C-9 36.34 -9 35.68 -9 35 C-12.38391693 33.93648325 -13.5804634 33.78557018 -16.8125 35.4375 C-17.8953125 36.2109375 -17.8953125 36.2109375 -19 37 C-19.33 34.69 -19.66 32.38 -20 30 C-22.31 29.67 -24.62 29.34 -27 29 C-26.505 27.515 -26.505 27.515 -26 26 C-25.34 26 -24.68 26 -24 26 C-23.74930087 23.62570704 -23.74930087 23.62570704 -24 21 C-25.43750191 19.31201173 -25.43750191 19.31201173 -27 18 C-27 17.34 -27 16.68 -27 16 C-24.36 16 -21.72 16 -19 16 C-19 13.69 -19 11.38 -19 9 C-18.4225 9.309375 -17.845 9.61875 -17.25 9.9375 C-14.2375338 11.38072364 -14.2375338 11.38072364 -11 12 C-8.27018168 10.64599355 -8.27018168 10.64599355 -6 9 C-6 11.64 -6 14.28 -6 17 C-3.69 17 -1.38 17 1 17 C0.67 11.39 0.34 5.78 0 0 Z " fill="#D9CFC7" transform="translate(230,402)"/>
<path d="M0 0 C3.465 1.98 3.465 1.98 7 4 C8.65 2.68 10.3 1.36 12 0 C12.97608217 2.92824652 13.08226668 4.95613276 13 8 C15.31 8 17.62 8 20 8 C19.690625 8.5775 19.38125 9.155 19.0625 9.75 C17.63452043 12.7646204 17.63452043 12.7646204 17 16 C18.39588754 17.64594139 18.39588754 17.64594139 20 19 C20 19.66 20 20.32 20 21 C17.69 21 15.38 21 13 21 C12.67 23.31 12.34 25.62 12 28 C14.31 28 16.62 28 19 28 C19 28.33 19 28.66 19 29 C7.78 29.33 -3.44 29.66 -15 30 C-15 29.67 -15 29.34 -15 29 C-9.94997778 27.96409801 -5.12583611 27.89748328 0 28 C-0.33 26.02 -0.66 24.04 -1 22 C-3.31 21.67 -5.62 21.34 -8 21 C-7.690625 20.4225 -7.38125 19.845 -7.0625 19.25 C-5.63452043 16.2353796 -5.63452043 16.2353796 -5 13 C-6.39588754 11.35405861 -6.39588754 11.35405861 -8 10 C-8 9.34 -8 8.68 -8 8 C-5.69 8 -3.38 8 -1 8 C-0.67 5.36 -0.34 2.72 0 0 Z " fill="#D5CECD" transform="translate(233,120)"/>
<path d="M0 0 C0.7425 0.515625 1.485 1.03125 2.25 1.5625 C4.79084553 3.2067231 4.79084553 3.2067231 7.0625 2.8125 C9.09507174 1.96013121 11.0570659 1.04085756 13 0 C13 2.64 13 5.28 13 8 C15.31 8 17.62 8 20 8 C20 14.93 20 21.86 20 29 C19.67 29 19.34 29 19 29 C19 26.36 19 23.72 19 21 C16.69 21 14.38 21 12 21 C12 23.31 12 25.62 12 28 C11.401875 27.690625 10.80375 27.38125 10.1875 27.0625 C7.91043228 25.89790296 7.91043228 25.89790296 5 25 C3.63266972 25.95298777 2.29735507 26.95374591 1 28 C0.34 28 -0.32 28 -1 28 C-1 25.69 -1 23.38 -1 21 C-3.64 20.67 -6.28 20.34 -9 20 C-7.68 18.35 -6.36 16.7 -5 15 C-5.495 13.8553125 -5.495 13.8553125 -6 12.6875 C-7 10 -7 10 -7 7 C-5.02 6.67 -3.04 6.34 -1 6 C-0.67 4.02 -0.34 2.04 0 0 Z " fill="#D5CECC" transform="translate(105,248)"/>
<path d="M0 0 C1.98 1.65 3.96 3.3 6 5 C6.598125 4.649375 7.19625 4.29875 7.8125 3.9375 C10 3 10 3 13 4 C12.67 5.98 12.34 7.96 12 10 C13.98 10.66 15.96 11.32 18 12 C18 12.66 18 13.32 18 14 C16 15.625 16 15.625 14 17 C14.34227572 19.97065509 14.34227572 19.97065509 15 23 C15.66 23.33 16.32 23.66 17 24 C15.41779413 24.96019364 13.83418669 25.91807798 12.25 26.875 C11.36828125 27.40867188 10.4865625 27.94234375 9.578125 28.4921875 C7.41725907 29.75596666 5.25429605 30.91498835 3 32 C3.33 31.01 3.66 30.02 4 29 C3.34 28.01 2.68 27.02 2 26 C-0.76276177 26.52268466 -3.3260876 27.10869587 -6 28 C-5.67 25.36 -5.34 22.72 -5 20 C-7.31 19.34 -9.62 18.68 -12 18 C-10.71034824 16.62437146 -9.37310707 15.29233607 -8 14 C-7.34 14 -6.68 14 -6 14 C-7.32 11.36 -8.64 8.72 -10 6 C-7.36 6 -4.72 6 -2 6 C-1.34 4.02 -0.68 2.04 0 0 Z " fill="#D6CECC" transform="translate(172,137)"/>
<path d="M0 0 C2 3 2 3 2 7 C6.455 6.505 6.455 6.505 11 6 C11 6.66 11 7.32 11 8 C10.34 8 9.68 8 9 8 C8.05392193 10.74961511 8.05392193 10.74961511 8 14 C10.31273442 16.8971941 10.31273442 16.8971941 13 19 C10.69 19.33 8.38 19.66 6 20 C6 22.64 6 25.28 6 28 C5.236875 27.67 4.47375 27.34 3.6875 27 C1.00930865 25.82563314 1.00930865 25.82563314 -2 26 C-3.0260734 27.31337396 -4.02727325 28.64664105 -5 30 C-5.66 30 -6.32 30 -7 30 C-7.33 27.69 -7.66 25.38 -8 23 C-11.96 23.495 -11.96 23.495 -16 24 C-14.68 21.36 -13.36 18.72 -12 16 C-13.32 15.34 -14.64 14.68 -16 14 C-16.66 13.34 -17.32 12.68 -18 12 C-15.69 8.37 -13.38 4.74 -11 1 C-8.03 2.98 -8.03 2.98 -5 5 C-3.35 3.35 -1.7 1.7 0 0 Z " fill="#D6CECD" transform="translate(352,312)"/>
<path d="M0 0 C0.66 0 1.32 0 2 0 C2.33 1.98 2.66 3.96 3 6 C5.64 5.67 8.28 5.34 11 5 C9.125 10.75 9.125 10.75 8 13 C8.804375 13.268125 9.60875 13.53625 10.4375 13.8125 C11.283125 14.204375 12.12875 14.59625 13 15 C13.33 15.99 13.66 16.98 14 18 C11.69 18.33 9.38 18.66 7 19 C7.66 21.64 8.32 24.28 9 27 C6.36 26.34 3.72 25.68 1 25 C0.01 26.65 -0.98 28.3 -2 30 C-4.69999726 28.99714388 -7.09778489 27.94037507 -9.5625 26.4375 C-11.78146478 25.12887975 -13.49075157 24.46467564 -16 24 C-15.67 23.34 -15.34 22.68 -15 22 C-14.34 22 -13.68 22 -13 22 C-12.67 20.35 -12.34 18.7 -12 17 C-12.66 16.54625 -13.32 16.0925 -14 15.625 C-14.66 15.08875 -15.32 14.5525 -16 14 C-16 13.34 -16 12.68 -16 12 C-14.35 11.34 -12.7 10.68 -11 10 C-11 7.36 -11 4.72 -11 2 C-10.236875 2.33 -9.47375 2.66 -8.6875 3 C-6.00930865 4.17436686 -6.00930865 4.17436686 -3 4 C-1.9739266 2.68662604 -0.97272675 1.35335895 0 0 Z " fill="#D6CECC" transform="translate(304,137)"/>
<path d="M0 0 C2 3 2 3 3 7 C5.64 6.34 8.28 5.68 11 5 C10.67 7.64 10.34 10.28 10 13 C11.65 13.66 13.3 14.32 15 15 C15 15.66 15 16.32 15 17 C13.02 17.99 11.04 18.98 9 20 C9.66 22.31 10.32 24.62 11 27 C8.36 26.67 5.72 26.34 3 26 C2.54625 26.825 2.0925 27.65 1.625 28.5 C1.08875 29.325 0.5525 30.15 0 31 C-0.66 31 -1.32 31 -2 31 C-2.99 29.02 -3.98 27.04 -5 25 C-7.31 25.66 -9.62 26.32 -12 27 C-11.34 24.36 -10.68 21.72 -10 19 C-11.98 18.01 -13.96 17.02 -16 16 C-14.60804085 13.2160817 -12.84424221 13.02101003 -10 12 C-10.27034634 9.56282742 -10.27034634 9.56282742 -11 7 C-11.99 6.34 -12.98 5.68 -14 5 C-7.07 2.525 -7.07 2.525 0 0 Z " fill="#D6CECC" transform="translate(298,353)"/>
<path d="M0 0 C0.33 0 0.66 0 1 0 C1.33 2.31 1.66 4.62 2 7 C4.31 7.33 6.62 7.66 9 8 C8.690625 8.5775 8.38125 9.155 8.0625 9.75 C6.63452043 12.7646204 6.63452043 12.7646204 6 16 C7.39588754 17.64594139 7.39588754 17.64594139 9 19 C9 19.66 9 20.32 9 21 C6.69 21 4.38 21 2 21 C2 23.64 2 26.28 2 29 C1.4225 28.690625 0.845 28.38125 0.25 28.0625 C-2.7624662 26.61927636 -2.7624662 26.61927636 -6 26 C-8.72981832 27.35400645 -8.72981832 27.35400645 -11 29 C-11.66 26.69 -12.32 24.38 -13 22 C-14.65 21.67 -16.3 21.34 -18 21 C-18.33 21.66 -18.66 22.32 -19 23 C-19 18.38 -19 13.76 -19 9 C-15.535 8.505 -15.535 8.505 -12 8 C-12 5.69 -12 3.38 -12 1 C-10.88625 1.495 -10.88625 1.495 -9.75 2 C-6.86116688 3.22782871 -6.86116688 3.22782871 -3 3 C-1.31201173 1.56249809 -1.31201173 1.56249809 0 0 Z " fill="#D5CECC" transform="translate(374,247)"/>
<path d="M0 0 C0.66 0 1.32 0 2 0 C2.66 1.65 3.32 3.3 4 5 C6.31 5 8.62 5 11 5 C10.33333333 7.66666667 9.66666667 10.33333333 9 13 C10.65 14.32 12.3 15.64 14 17 C11.03 22.445 11.03 22.445 8 28 C7.67 27.34 7.34 26.68 7 26 C3.97065509 25.34227572 3.97065509 25.34227572 1 25 C0.01 26.32 -0.98 27.64 -2 29 C-2.99 28.67 -3.98 28.34 -5 28 C-5.33 26.35 -5.66 24.7 -6 23 C-9.96 23.495 -9.96 23.495 -14 24 C-13.67 23.236875 -13.34 22.47375 -13 21.6875 C-11.82563314 19.00930865 -11.82563314 19.00930865 -12 16 C-14.4390706 13.79857668 -14.4390706 13.79857668 -17 12 C-14.09399739 10.74335022 -12.20395416 10 -9 10 C-9.66 7.36 -10.32 4.72 -11 2 C-8.36 2.66 -5.72 3.32 -3 4 C-2.54625 3.34 -2.0925 2.68 -1.625 2 C-0.820625 1.01 -0.820625 1.01 0 0 Z " fill="#D6CECC" transform="translate(131,184)"/>
<path d="M0 0 C1.50559539 1.96382007 2.89131683 3.78263366 4 6 C6.97065509 5.65772428 6.97065509 5.65772428 10 5 C10.33 4.34 10.66 3.68 11 3 C11.86355778 4.95421035 12.71559934 6.91351347 13.5625 8.875 C14.03816406 9.96554687 14.51382813 11.05609375 15.00390625 12.1796875 C15.33261719 13.11039062 15.66132813 14.04109375 16 15 C14.768606 17.46278801 13.21935077 18.42497687 11 20 C11.33 21.98 11.66 23.96 12 26 C10.906875 25.896875 9.81375 25.79375 8.6875 25.6875 C7.470625 25.790625 6.25375 25.89375 5 26 C2.99135641 28.3726974 2.99135641 28.3726974 2 31 C0.29159719 29.36587557 -0.93453047 28.13093906 -2 26 C-4.64 26.66 -7.28 27.32 -10 28 C-9.67 25.36 -9.34 22.72 -9 20 C-11.475 19.01 -11.475 19.01 -14 18 C-14 17.01 -14 16.02 -14 15 C-12.02 14.34 -10.04 13.68 -8 13 C-8.495 12.05125 -8.99 11.1025 -9.5 10.125 C-11 7 -11 7 -11 5 C-8.36 5.33 -5.72 5.66 -3 6 C-2.01 4.02 -1.02 2.04 0 0 Z " fill="#D6CECC" transform="translate(123,310)"/>
<path d="M0 0 C3 1 3 1 5 4 C7.64 3.34 10.28 2.68 13 2 C12.67 4.31 12.34 6.62 12 9 C13.98 9.66 15.96 10.32 18 11 C17 14 17 14 14 16 C14.66 18.64 15.32 21.28 16 24 C13.36 23.67 10.72 23.34 8 23 C7.67 25.31 7.34 27.62 7 30 C4 29 4 29 2.8125 26.9375 C2.544375 26.298125 2.27625 25.65875 2 25 C-1.96 25.495 -1.96 25.495 -6 26 C-7.98 23.03 -9.96 20.06 -12 17 C-10.35 15.68 -8.7 14.36 -7 13 C-7.350625 12.236875 -7.70125 11.47375 -8.0625 10.6875 C-9 8 -9 8 -8 5 C-6.02 5 -4.04 5 -2 5 C-1.34 3.35 -0.68 1.7 0 0 Z " fill="#D5CECC" transform="translate(347,183)"/>
<path d="M0 0 C1.48555383 0.92734572 2.96327506 1.86724813 4.4375 2.8125 C5.67306641 3.59560547 5.67306641 3.59560547 6.93359375 4.39453125 C9 6 9 6 10 9 C8.5625 12.1875 8.5625 12.1875 7 15 C7.639375 15.268125 8.27875 15.53625 8.9375 15.8125 C11 17 11 17 12 20 C10.02 20.33 8.04 20.66 6 21 C6 23.31 6 25.62 6 28 C2 27 2 27 0.0625 26.1875 C-2.27619352 25.75043937 -2.27619352 25.75043937 -4.75 27.9375 C-5.86375 28.9584375 -5.86375 28.9584375 -7 30 C-7.33 27.69 -7.66 25.38 -8 23 C-10.64 23 -13.28 23 -16 23 C-15.690625 22.401875 -15.38125 21.80375 -15.0625 21.1875 C-13.89790296 18.91043228 -13.89790296 18.91043228 -13 16 C-13.66 15.54625 -14.32 15.0925 -15 14.625 C-15.66 14.08875 -16.32 13.5525 -17 13 C-17 12.34 -17 11.68 -17 11 C-15.02 10.34 -13.04 9.68 -11 9 C-11 6.69 -11 4.38 -11 2 C-10.2575 2.350625 -9.515 2.70125 -8.75 3.0625 C-5.84219054 4.05379868 -4.76517442 4.23956095 -2 3 C-1.34 2.01 -0.68 1.02 0 0 Z " fill="#D5CECD" transform="translate(169,365)"/>
<path d="M0 0 C2.4375 0.6875 2.4375 0.6875 5 2 C6.31528994 6.20444712 6.13501648 10.54724067 6.11352539 14.91137695 C6.11367142 15.69239273 6.11381744 16.47340851 6.1139679 17.27809143 C6.1132737 19.84818339 6.10550446 22.41820202 6.09765625 24.98828125 C6.09579032 26.77475444 6.09436724 28.56122814 6.09336853 30.34770203 C6.08955716 35.04124371 6.07973867 39.73475427 6.06866455 44.42828369 C6.05842075 49.22106505 6.05386455 54.01385146 6.04882812 58.80664062 C6.03811514 68.20444073 6.02105531 77.60221777 6 87 C5.23445801 86.99476318 4.46891602 86.98952637 3.68017578 86.98413086 C0.16179243 86.96315333 -3.35657768 86.95027435 -6.875 86.9375 C-8.68097656 86.92493164 -8.68097656 86.92493164 -10.5234375 86.91210938 C-17.41719146 86.89337635 -24.15920263 87.12391174 -31 88 C-20.47822621 82.15457011 -7.35753691 85 4 85 C3.67 57.94 3.34 30.88 3 3 C0.525 2.505 0.525 2.505 -2 2 C-1.34 1.34 -0.68 0.68 0 0 Z " fill="#F78591" transform="translate(247,1)"/>
<path d="M0 0 C2.05078125 0.03255208 4.1015625 0.06510417 6.15234375 0.09765625 C3.0642468 1.86228308 1.91922239 2.09765625 -1.84765625 2.09765625 C-1.84765625 17.93765625 -1.84765625 33.77765625 -1.84765625 50.09765625 C-8.77765625 50.09765625 -15.70765625 50.09765625 -22.84765625 50.09765625 C-23.55096872 46.58109389 -23.97138545 44.04185482 -23.96118164 40.58276367 C-23.96106834 39.29199165 -23.96106834 39.29199165 -23.96095276 37.97514343 C-23.95579147 37.06037735 -23.95063019 36.14561127 -23.9453125 35.203125 C-23.94319008 33.78209221 -23.94319008 33.78209221 -23.94102478 32.33235168 C-23.93544236 29.3165873 -23.92289307 26.30089807 -23.91015625 23.28515625 C-23.90513898 21.2363292 -23.90057647 19.18750098 -23.89648438 17.13867188 C-23.88547868 12.12497119 -23.86822613 7.11132645 -23.84765625 2.09765625 C-24.83765625 1.76765625 -25.82765625 1.43765625 -26.84765625 1.09765625 C-25.52765625 1.09765625 -24.20765625 1.09765625 -22.84765625 1.09765625 C-22.21335334 16.77472247 -21.7211191 32.40704905 -21.84765625 48.09765625 C-15.57765625 48.09765625 -9.30765625 48.09765625 -2.84765625 48.09765625 C-2.85289307 46.67912354 -2.85812988 45.26059082 -2.86352539 43.79907227 C-2.88156934 38.55672838 -2.89308603 33.31438725 -2.90258789 28.07202148 C-2.9076295 25.79923034 -2.91446262 23.52644245 -2.9230957 21.25366211 C-2.93516886 17.99462074 -2.94088612 14.73562208 -2.9453125 11.4765625 C-2.95047379 10.45365616 -2.95563507 9.43074982 -2.96095276 8.37684631 C-2.96106606 6.9654966 -2.96106606 6.9654966 -2.96118164 5.52563477 C-2.96340225 4.69290543 -2.96562286 3.86017609 -2.96791077 3.00221252 C-2.80689768 0.45213376 -2.5565327 0.13512329 0 0 Z " fill="#EFD7AA" transform="translate(253.84765625,501.90234375)"/>
<path d="M0 0 C1.32 0.66 2.64 1.32 4 2 C4 2.99 4 3.98 4 5 C4.66 5 5.32 5 6 5 C6.33 3.35 6.66 1.7 7 0 C8.32 0 9.64 0 11 0 C11 4.29 11 8.58 11 13 C10.01 13.33 9.02 13.66 8 14 C7.67 13.34 7.34 12.68 7 12 C4.69 12.66 2.38 13.32 0 14 C-1 13 -1 13 -1.1328125 10.3125 C-1.13023437 9.219375 -1.12765625 8.12625 -1.125 7 C-1.12757813 5.906875 -1.13015625 4.81375 -1.1328125 3.6875 C-1 1 -1 1 0 0 Z " fill="#F0717E" transform="translate(249,703)"/>
<path d="M0 0 C4 2 4 2 5 4 C4.01 4 3.02 4 2 4 C2.33 22.48 2.66 40.96 3 60 C2.01 60 1.02 60 0 60 C0 40.2 0 20.4 0 0 Z " fill="#F86F7F" transform="translate(256,29)"/>
<path d="M0 0 C4 1 4 1 6 4 C6.33 2.68 6.66 1.36 7 0 C7.99 0 8.98 0 10 0 C10 4.62 10 9.24 10 14 C8.68 13.67 7.36 13.34 6 13 C5.67 12.34 5.34 11.68 5 11 C4.01 12.485 4.01 12.485 3 14 C2.01 13.67 1.02 13.34 0 13 C0 8.71 0 4.42 0 0 Z " fill="#F7959F" transform="translate(204,703)"/>
<path d="M0 0 C1.8125 0.0859375 1.8125 0.0859375 4 0.375 C5.0828125 0.51035156 5.0828125 0.51035156 6.1875 0.6484375 C8 1 8 1 9 2 C9.23255814 6.53488372 9.23255814 6.53488372 8 9 C8.27942455 10.67654729 8.60828247 12.34608154 9 14 C7.0625 13.625 7.0625 13.625 5 13 C4.67 12.34 4.34 11.68 4 11 C3.01 12.485 3.01 12.485 2 14 C1.01 13.67 0.02 13.34 -1 13 C-1.02686553 11.02090602 -1.04633375 9.04171029 -1.0625 7.0625 C-1.07410156 5.96035156 -1.08570313 4.85820313 -1.09765625 3.72265625 C-1 1 -1 1 0 0 Z M3 4 C3 4.66 3 5.32 3 6 C3.66 6 4.32 6 5 6 C5 5.34 5 4.68 5 4 C4.34 4 3.68 4 3 4 Z " fill="#F09BA4" transform="translate(166,703)"/>
<path d="M0 0 C6.75 0 6.75 0 10 3 C9.814375 4.0725 9.62875 5.145 9.4375 6.25 C9.0695432 9.40391546 8.95534657 11.09818492 10 14 C9.38125 13.835 8.7625 13.67 8.125 13.5 C4.82160454 12.72273048 3.48498612 13.12875347 0 14 C0 9.38 0 4.76 0 0 Z M4 4 C3.67 4.66 3.34 5.32 3 6 C3.99 6 4.98 6 6 6 C6 5.34 6 4.68 6 4 C5.34 4 4.68 4 4 4 Z " fill="#EB97A0" transform="translate(62,703)"/>
<path d="M0 0 C6.2246696 0.34581498 6.2246696 0.34581498 9 2.6875 C10.40208688 5.9298259 10.13144192 7.67638935 9 11 C6.75 12.9375 6.75 12.9375 4 14 C1.328125 13.56640625 1.328125 13.56640625 -1 13 C-1.02686553 11.02090602 -1.04633375 9.04171029 -1.0625 7.0625 C-1.07410156 5.96035156 -1.08570312 4.85820313 -1.09765625 3.72265625 C-1 1 -1 1 0 0 Z M3 4 C3 5.98 3 7.96 3 10 C3.99 9.67 4.98 9.34 6 9 C5.67 7.35 5.34 5.7 5 4 C4.34 4 3.68 4 3 4 Z " fill="#EC6A77" transform="translate(121,703)"/>
<path d="M0 0 C4 1 4 1 6 4 C6.33 2.68 6.66 1.36 7 0 C7.99 0 8.98 0 10 0 C10 4.29 10 8.58 10 13 C9.01 13.495 9.01 13.495 8 14 C6.68 12.68 5.36 11.36 4 10 C3.67 11.32 3.34 12.64 3 14 C2.01 14 1.02 14 0 14 C0 9.38 0 4.76 0 0 Z M3 7 C4 9 4 9 4 9 Z " fill="#F07682" transform="translate(16,703)"/>
<path d="M0 0 C6 0 6 0 8.375 1 C10.56941727 3.70082126 10.62897796 5.70842814 10.453125 9.125 C10 11 10 11 7.8125 13 C5 14 5 14 0 14 C0 9.38 0 4.76 0 0 Z M4 4 C4 5.98 4 7.96 4 10 C4.99 9.67 5.98 9.34 7 9 C6.67 7.35 6.34 5.7 6 4 C5.34 4 4.68 4 4 4 Z " fill="#F4A0AA" transform="translate(178,703)"/>
<path d="M0 0 C3.875 1.75 3.875 1.75 5 4 C5.33 2.68 5.66 1.36 6 0 C6.99 0 7.98 0 9 0 C9 4.62 9 9.24 9 14 C5 13 5 13 3.75 10.9375 C3.37875 9.9784375 3.37875 9.9784375 3 9 C2.67 10.65 2.34 12.3 2 14 C1.01 13.67 0.02 13.34 -1 13 C-1.02686553 11.02090602 -1.04633375 9.04171029 -1.0625 7.0625 C-1.07410156 5.96035156 -1.08570313 4.85820313 -1.09765625 3.72265625 C-1 1 -1 1 0 0 Z " fill="#EF616E" transform="translate(370,703)"/>
<path d="M0 0 C6.6 0.6 6.6 0.6 9 3 C9.57142857 8.14285714 9.57142857 8.14285714 9 11 C6.8125 13.0625 6.8125 13.0625 4 14 C1.32421875 13.55859375 1.32421875 13.55859375 -1 13 C-1.02686553 11.02090602 -1.04633375 9.04171029 -1.0625 7.0625 C-1.07410156 5.96035156 -1.08570313 4.85820313 -1.09765625 3.72265625 C-1 1 -1 1 0 0 Z M3 4 C3 5.98 3 7.96 3 10 C3.99 9.67 4.98 9.34 6 9 C5.67 7.35 5.34 5.7 5 4 C4.34 4 3.68 4 3 4 Z " fill="#E7979F" transform="translate(384,703)"/>
<path d="M0 0 C1.36125 0.37125 1.36125 0.37125 2.75 0.75 C2.75 1.74 2.75 2.73 2.75 3.75 C0.77 3.75 -1.21 3.75 -3.25 3.75 C-3.25 5.73 -3.25 7.71 -3.25 9.75 C-2.92 8.43 -2.59 7.11 -2.25 5.75 C-0.27 5.75 1.71 5.75 3.75 5.75 C3.9375 8.625 3.9375 8.625 3.75 11.75 C0.75 13.75 0.75 13.75 -2.3125 13.5625 C-5.25 12.75 -5.25 12.75 -7.25 9.75 C-7.71443597 6.1119182 -7.67843764 4.39265646 -5.625 1.3125 C-3.25 -0.25 -3.25 -0.25 0 0 Z " fill="#F67F8B" transform="translate(278.25,703.25)"/>
<path d="M0 0 C6 0 6 0 9 2 C9.29296875 4.3828125 9.29296875 4.3828125 9.1875 7.125 C9.16042969 8.03507813 9.13335937 8.94515625 9.10546875 9.8828125 C9.07066406 10.58148437 9.03585937 11.28015625 9 12 C5.53785351 14.05164237 4.40610765 14 0 14 C0 9.38 0 4.76 0 0 Z M3 3 C3 3.66 3 4.32 3 5 C3.66 4.67 4.32 4.34 5 4 C4.34 3.67 3.68 3.34 3 3 Z M3 8 C3 8.66 3 9.32 3 10 C3.99 10 4.98 10 6 10 C6 9.34 6 8.68 6 8 C5.01 8 4.02 8 3 8 Z " fill="#EA5C69" transform="translate(344,703)"/>
<path d="M0 0 C2.64 0.33 5.28 0.66 8 1 C8.87867729 4.73437848 9.08912219 8.16774573 9 12 C5.53785351 14.05164237 4.40610765 14 0 14 C0 9.38 0 4.76 0 0 Z M3 3 C3 3.66 3 4.32 3 5 C3.66 4.67 4.32 4.34 5 4 C4.34 3.67 3.68 3.34 3 3 Z M3 8 C3 8.66 3 9.32 3 10 C3.99 10 4.98 10 6 10 C6 9.34 6 8.68 6 8 C5.01 8 4.02 8 3 8 Z " fill="#E85866" transform="translate(418,703)"/>
<path d="M0 0 C2.875 1 2.875 1 4.3125 2.6875 C5.07765189 5.83312444 4.79764063 7.90256359 3.875 11 C2.125 12.9375 2.125 12.9375 -0.125 14 C-2.75 13.875 -2.75 13.875 -5.125 13 C-7.45249345 9.50875983 -7.62799316 8.10777749 -7.125 4 C-4.92588477 0.70132715 -4.0025361 0 0 0 Z M-2.125 3 C-3.48118499 4.12534105 -3.48118499 4.12534105 -3.1875 7.0625 C-3.166875 8.031875 -3.14625 9.00125 -3.125 10 C-1.805 9.67 -0.485 9.34 0.875 9 C0.875 7.35 0.875 5.7 0.875 4 C-0.115 3.67 -1.105 3.34 -2.125 3 Z " fill="#F5727F" transform="translate(474.125,703)"/>
<path d="M0 0 C2.9375 0.8125 2.9375 0.8125 4.9375 3.8125 C5.40687082 7.48923806 5.38159864 9.17102418 3.25 12.25 C0.9375 13.8125 0.9375 13.8125 -1.625 13.8125 C-4.65476304 12.56952029 -5.65570032 11.78241044 -7.0625 8.8125 C-6.9375 5.1875 -6.9375 5.1875 -6.0625 1.8125 C-3.0625 -0.1875 -3.0625 -0.1875 0 0 Z M-1.0625 2.8125 C-2.0525 3.3075 -2.0525 3.3075 -3.0625 3.8125 C-3.0625 5.7925 -3.0625 7.7725 -3.0625 9.8125 C-1.7425 9.8125 -0.4225 9.8125 0.9375 9.8125 C0.9375 7.8325 0.9375 5.8525 0.9375 3.8125 C0.2775 3.4825 -0.3825 3.1525 -1.0625 2.8125 Z " fill="#F78995" transform="translate(403.0625,703.1875)"/>
<path d="M0 0 C2.05078125 0.03255208 4.1015625 0.06510417 6.15234375 0.09765625 C5.82234375 2.73765625 5.49234375 5.37765625 5.15234375 8.09765625 C3.83234375 8.09765625 2.51234375 8.09765625 1.15234375 8.09765625 C1.15234375 8.75765625 1.15234375 9.41765625 1.15234375 10.09765625 C2.80234375 10.09765625 4.45234375 10.09765625 6.15234375 10.09765625 C5.82234375 11.41765625 5.49234375 12.73765625 5.15234375 14.09765625 C2.819396 14.14007348 0.48531808 14.13858562 -1.84765625 14.09765625 C-2.84765625 13.09765625 -2.84765625 13.09765625 -2.98046875 10.41015625 C-2.97789062 9.31703125 -2.9753125 8.22390625 -2.97265625 7.09765625 C-2.97523438 6.00453125 -2.9778125 4.91140625 -2.98046875 3.78515625 C-2.80072704 0.14802997 -2.80072704 0.14802997 0 0 Z " fill="#F77B88" transform="translate(301.84765625,702.90234375)"/>
<path d="M0 0 C6 0 6 0 9 2 C9.1875 4.4375 9.1875 4.4375 9 7 C8.84188612 10.05270463 8.84188612 10.05270463 10 13 C8.68 13 7.36 13 6 13 C5.34 12.01 4.68 11.02 4 10 C3.67 11.32 3.34 12.64 3 14 C2.01 14 1.02 14 0 14 C0 9.38 0 4.76 0 0 Z M3 4 C3 4.66 3 5.32 3 6 C3.99 5.67 4.98 5.34 6 5 C5.01 4.67 4.02 4.34 3 4 Z " fill="#E13F4C" transform="translate(431,703)"/>
<path d="M0 0 C2 2 2 2 2.375 5.9375 C2.29434554 8.89483011 2.23854038 9.70845065 0.3125 12.0625 C-2.6020668 13.24408113 -4.04965818 13.00932746 -7 12 C-9 10 -9 10 -9.3125 6.0625 C-9.23330121 3.50018618 -9.11578846 2.21227884 -7.875 -0.0625 C-5.00457974 -1.49771013 -3.01840612 -0.83487829 0 0 Z M-4 2 C-4.66 2.66 -5.32 3.32 -6 4 C-5.67958603 6.60280568 -5.67958603 6.60280568 -5 9 C-4.01 9 -3.02 9 -2 9 C-1.22757731 7.16299211 -1.22757731 7.16299211 -1 5 C-2.35444301 3.22809091 -2.35444301 3.22809091 -4 2 Z " fill="#F65C6B" transform="translate(338,704)"/>
<path d="M0 0 C6.34507042 0.59859155 6.34507042 0.59859155 8.9375 2.1875 C10.5339636 4.91087907 10.38630872 6.90953021 10 10 C8.9375 11.8125 8.9375 11.8125 7 13 C3.3125 13.6875 3.3125 13.6875 0 14 C0 9.38 0 4.76 0 0 Z M3 4 C3 5.98 3 7.96 3 10 C3.99 9.67 4.98 9.34 6 9 C6 7.35 6 5.7 6 4 C5.01 4 4.02 4 3 4 Z " fill="#E83D4C" transform="translate(95,703)"/>
<path d="M0 0 C2.64 0 5.28 0 8 0 C8 2.64 8 5.28 8 8 C6.35 8 4.7 8 3 8 C3 8.66 3 9.32 3 10 C4.65 10 6.3 10 8 10 C8 11.32 8 12.64 8 14 C5.66705225 14.04241723 3.33297433 14.04092937 1 14 C0 13 0 13 -0.09765625 10.05859375 C-0.08605469 8.86363281 -0.07445312 7.66867187 -0.0625 6.4375 C-0.05347656 5.23996094 -0.04445312 4.04242187 -0.03515625 2.80859375 C-0.02355469 1.88175781 -0.01195312 0.95492187 0 0 Z " fill="#F66D7B" transform="translate(192,703)"/>
<path d="M0 0 C1.32 0.33 2.64 0.66 4 1 C4 3.97 4 6.94 4 10 C4.99 10 5.98 10 7 10 C7 6.7 7 3.4 7 0 C7.99 0 8.98 0 10 0 C10.08082094 1.95766281 10.13910778 3.91626728 10.1875 5.875 C10.22230469 6.96554687 10.25710938 8.05609375 10.29296875 9.1796875 C10.19628906 10.11039063 10.09960938 11.04109375 10 12 C7 14 7 14 4.4375 13.8125 C2 13 2 13 0 10 C-0.1953125 7.51953125 -0.1953125 7.51953125 -0.125 4.8125 C-0.10695313 3.91144531 -0.08890625 3.01039063 -0.0703125 2.08203125 C-0.04710937 1.39496094 -0.02390625 0.70789063 0 0 Z " fill="#E5626E" transform="translate(285,703)"/>
<path d="M0 0 C2.64 0 5.28 0 8 0 C8 2.64 8 5.28 8 8 C6.35 8 4.7 8 3 8 C3 8.66 3 9.32 3 10 C4.65 10 6.3 10 8 10 C8 11.32 8 12.64 8 14 C5.36 14 2.72 14 0 14 C0 9.38 0 4.76 0 0 Z " fill="#E46975" transform="translate(50,703)"/>
<path d="M0 0 C1.32 0 2.64 0 4 0 C7.44419134 9.41002278 7.44419134 9.41002278 7 14 C5.68 13.34 4.36 12.68 3 12 C3 11.34 3 10.68 3 10 C2.01 10 1.02 10 0 10 C-0.33 11.32 -0.66 12.64 -1 14 C-1.99 14 -2.98 14 -4 14 C-3.00956295 9.16371695 -2.04301154 4.52381127 0 0 Z " fill="#DF9BA3" transform="translate(359,703)"/>
<path d="M0 0 C0.99 0 1.98 0 3 0 C3.33 3.3 3.66 6.6 4 10 C4.66 9.67 5.32 9.34 6 9 C6.46651207 6.87423218 6.46651207 6.87423218 6.625 4.4375 C6.69976563 3.61121094 6.77453125 2.78492188 6.8515625 1.93359375 C6.90054687 1.29550781 6.94953125 0.65742187 7 0 C7.99 0 8.98 0 10 0 C10.08114106 1.77007714 10.13925505 3.54122098 10.1875 5.3125 C10.22230469 6.29863281 10.25710938 7.28476562 10.29296875 8.30078125 C10 11 10 11 8.68359375 12.8671875 C7 14 7 14 3.875 13.8125 C2.92625 13.544375 1.9775 13.27625 1 13 C-0.32229189 10.35541621 -0.09677194 8.32238699 -0.0625 5.375 C-0.05347656 4.37210938 -0.04445312 3.36921875 -0.03515625 2.3359375 C-0.02355469 1.56507813 -0.01195313 0.79421875 0 0 Z " fill="#EE6571" transform="translate(2,703)"/>
<path d="M0 0 C1.890625 0.23046875 1.890625 0.23046875 4 1 C5.046875 2.92578125 5.046875 2.92578125 5.75 5.3125 C5.99234375 6.09238281 6.2346875 6.87226562 6.484375 7.67578125 C7 10 7 10 7 14 C5.68 13.67 4.36 13.34 3 13 C3 12.01 3 11.02 3 10 C2.01 10 1.02 10 0 10 C0 10.99 0 11.98 0 13 C-1.32 13.33 -2.64 13.66 -4 14 C-3.46148032 8.72250715 -2.22656164 4.74354436 0 0 Z " fill="#F58692" transform="translate(221,703)"/>
<path d="M0 0 C2.59579847 0.9921957 3.76451254 1.53693324 5.046875 4.05859375 C5.27890625 4.84363281 5.5109375 5.62867188 5.75 6.4375 C6.11351562 7.61119141 6.11351562 7.61119141 6.484375 8.80859375 C7 11 7 11 7 14 C5.68 13.67 4.36 13.34 3 13 C3 12.01 3 11.02 3 10 C2.01 10 1.02 10 0 10 C-0.33 11.32 -0.66 12.64 -1 14 C-1.99 14 -2.98 14 -4 14 C-3.53328373 8.58609132 -2.75702189 4.79482068 0 0 Z " fill="#E9505D" transform="translate(156,703)"/>
<path d="M0 0 C1.3921875 0.3403125 1.3921875 0.3403125 2.8125 0.6875 C2.8125 1.6775 2.8125 2.6675 2.8125 3.6875 C1.4925 3.6875 0.1725 3.6875 -1.1875 3.6875 C1.2875 5.6675 1.2875 5.6675 3.8125 7.6875 C3.4825 9.3375 3.1525 10.9875 2.8125 12.6875 C0 13.3125 0 13.3125 -3.1875 13.6875 C-4.1775 13.0275 -5.1675 12.3675 -6.1875 11.6875 C-5.8575 10.6975 -5.5275 9.7075 -5.1875 8.6875 C-3.8675 8.6875 -2.5475 8.6875 -1.1875 8.6875 C-1.826875 8.44 -2.46625 8.1925 -3.125 7.9375 C-5.1875 6.6875 -5.1875 6.6875 -6.125 4.75 C-6.1875 2.6875 -6.1875 2.6875 -5.125 0.875 C-3.1875 -0.3125 -3.1875 -0.3125 0 0 Z " fill="#F27B86" transform="translate(80.1875,703.3125)"/>
<path d="M0 0 C0.99 0 1.98 0 3 0 C3.67260351 1.76858691 4.33788395 3.53996016 5 5.3125 C5.37125 6.29863281 5.7425 7.28476562 6.125 8.30078125 C7 11 7 11 7 14 C5.68 13.67 4.36 13.34 3 13 C3 12.01 3 11.02 3 10 C2.01 10 1.02 10 0 10 C-0.33 11.32 -0.66 12.64 -1 14 C-1.99 14 -2.98 14 -4 14 C-3.46148032 8.72250715 -2.22656164 4.74354436 0 0 Z " fill="#EA707C" transform="translate(111,703)"/>
<path d="M0 0 C1.890625 0.23046875 1.890625 0.23046875 4 1 C5.046875 2.92578125 5.046875 2.92578125 5.75 5.3125 C5.99234375 6.09238281 6.2346875 6.87226562 6.484375 7.67578125 C7 10 7 10 7 14 C6.01 14 5.02 14 4 14 C3.67 12.68 3.34 11.36 3 10 C2.01 10 1.02 10 0 10 C-0.33 11.32 -0.66 12.64 -1 14 C-1.99 13.67 -2.98 13.34 -4 13 C-3.52343588 11.20763933 -3.04366502 9.41613103 -2.5625 7.625 C-2.29566406 6.62726562 -2.02882813 5.62953125 -1.75390625 4.6015625 C-1 2 -1 2 0 0 Z " fill="#E97581" transform="translate(446,703)"/>
<path d="M0 0 C0.99 0 1.98 0 3 0 C3.33 1.98 3.66 3.96 4 6 C4.66 6 5.32 6 6 6 C6.33 4.02 6.66 2.04 7 0 C7.99 0 8.98 0 10 0 C9.53328373 5.41390868 8.75702189 9.20517932 6 14 C4.109375 13.3515625 4.109375 13.3515625 2 12 C0.953125 9.3984375 0.953125 9.3984375 0.25 6.375 C0.00765625 5.37210938 -0.2346875 4.36921875 -0.484375 3.3359375 C-0.65453125 2.56507813 -0.8246875 1.79421875 -1 1 C-0.67 0.67 -0.34 0.34 0 0 Z " fill="#F5818C" transform="translate(37,703)"/>
<path d="M0 0 C1.921875 0.37109375 1.921875 0.37109375 4 1 C5.25 3.0625 5.25 3.0625 6 5 C6.66 3.35 7.32 1.7 8 0 C8.99 0 9.98 0 11 0 C10.46148032 5.27749285 9.22656164 9.25645564 7 14 C5.109375 13.3828125 5.109375 13.3828125 3 12 C1.953125 9.1796875 1.953125 9.1796875 1.25 5.875 C1.00765625 4.77929688 0.7653125 3.68359375 0.515625 2.5546875 C0.34546875 1.71164062 0.1753125 0.86859375 0 0 Z " fill="#F68590" transform="translate(454,703)"/>
<path d="M0 0 C0 0.99 0 1.98 0 3 C-1.65 3.33 -3.3 3.66 -5 4 C-5 5.32 -5 6.64 -5 8 C-3.35 8 -1.7 8 0 8 C0 9.32 0 10.64 0 12 C-2.90980194 12.88910615 -4.45319482 13.22167778 -7.3125 12.0625 C-9.56147769 9.31374949 -9.5725083 7.35765533 -9.38671875 3.87890625 C-9 2 -9 2 -7.3125 -0.0625 C-4.45319482 -1.22167778 -2.90980194 -0.88910615 0 0 Z " fill="#F56B77" transform="translate(149,704)"/>
<path d="M0 0 C0.99 0 1.98 0 3 0 C3 3.3 3 6.6 3 10 C4.65 10 6.3 10 8 10 C7.67 11.32 7.34 12.64 7 14 C4.69 14 2.38 14 0 14 C-1.24377393 11.51245214 -1.13306235 9.77344699 -1.125 7 C-1.12757813 6.113125 -1.13015625 5.22625 -1.1328125 4.3125 C-1 2 -1 2 0 0 Z " fill="#DD727D" transform="translate(312,703)"/>
<path d="M0 0 C0.99 0 1.98 0 3 0 C3 3.3 3 6.6 3 10 C4.65 10 6.3 10 8 10 C7.67 11.32 7.34 12.64 7 14 C4.69 14 2.38 14 0 14 C0 9.38 0 4.76 0 0 Z " fill="#DC5B67" transform="translate(231,703)"/>
<path d="M0 0 C3.875 1.875 3.875 1.875 5 3 C6.51469448 3.23192865 8.03754562 3.41215238 9.5625 3.5625 C10.80193359 3.68818359 10.80193359 3.68818359 12.06640625 3.81640625 C12.70449219 3.87699219 13.34257812 3.93757812 14 4 C14 4.33 14 4.66 14 5 C2.78 5.33 -8.44 5.66 -20 6 C-20 5.67 -20 5.34 -20 5 C-18.21142578 4.83564453 -18.21142578 4.83564453 -16.38671875 4.66796875 C-14.82024165 4.50850701 -13.25383901 4.34831249 -11.6875 4.1875 C-10.90181641 4.11724609 -10.11613281 4.04699219 -9.30664062 3.97460938 C-8.54931641 3.89404297 -7.79199219 3.81347656 -7.01171875 3.73046875 C-6.31522217 3.66239014 -5.61872559 3.59431152 -4.90112305 3.52416992 C-2.56056901 2.87884187 -1.5616975 1.81806371 0 0 Z " fill="#EEDEBB" transform="translate(238,144)"/>
<path d="M0 0 C1.32 0.33 2.64 0.66 4 1 C4 4.96 4 8.92 4 13 C2.68 13.33 1.36 13.66 0 14 C0 9.38 0 4.76 0 0 Z " fill="#EB808B" transform="translate(264,703)"/>
<path d="M0 0 C1.32 0 2.64 0 4 0 C4 4.29 4 8.58 4 13 C2.68 13 1.36 13 0 13 C0 8.71 0 4.42 0 0 Z " fill="#EF838E" transform="translate(30,703)"/>
<path d="M0 0 C0.66 0 1.32 0 2 0 C2 2.97 2 5.94 2 9 C3.32 9 4.64 9 6 9 C5.67 6.69 5.34 4.38 5 2 C5.99 2 6.98 2 8 2 C8 4.64 8 7.28 8 10 C4.53785351 12.05164237 3.40610765 12 -1 12 C-0.67 8.04 -0.34 4.08 0 0 Z " fill="#DF2B3C" transform="translate(179,705)"/>
<path d="M0 0 C1.32 0.33 2.64 0.66 4 1 C4 4.96 4 8.92 4 13 C2.68 13 1.36 13 0 13 C0 8.71 0 4.42 0 0 Z " fill="#EF7B86" transform="translate(87,703)"/>
<path d="M0 0 C1.65 0 3.3 0 5 0 C4.01 0.33 3.02 0.66 2 1 C2 1.99 2 2.98 2 4 C3.32 4 4.64 4 6 4 C6.33 3.01 6.66 2.02 7 1 C6.67 3.31 6.34 5.62 6 8 C6.99 8.33 7.98 8.66 9 9 C9 9.99 9 10.98 9 12 C7.68 11.67 6.36 11.34 5 11 C4.67 9.35 4.34 7.7 4 6 C3.01 6 2.02 6 1 6 C0.67 7.32 0.34 8.64 0 10 C0 6.7 0 3.4 0 0 Z " fill="#E9303F" transform="translate(63,705)"/>
<path d="M0 0 C1.32 0.33 2.64 0.66 4 1 C4.33 4.63 4.66 8.26 5 12 C3.68 12 2.36 12 1 12 C-0.26237731 9.47524538 -0.09856404 7.68799534 -0.0625 4.875 C-0.05347656 3.96492187 -0.04445313 3.05484375 -0.03515625 2.1171875 C-0.02355469 1.41851563 -0.01195312 0.71984375 0 0 Z " fill="#F47986" transform="translate(285,703)"/>
<path d="M0 0 C1.32 0.33 2.64 0.66 4 1 C4.33 2.32 4.66 3.64 5 5 C4.01 5 3.02 5 2 5 C2.33 5.66 2.66 6.32 3 7 C3.04022391 9.3329866 3.04320247 11.66706666 3 14 C2.01 13.67 1.02 13.34 0 13 C0 8.71 0 4.42 0 0 Z " fill="#EA616F" transform="translate(204,703)"/>
<path d="M0 0 C2.31 0 4.62 0 7 0 C7.33 1.32 7.66 2.64 8 4 C7.34 4 6.68 4 6 4 C6 3.01 6 2.02 6 1 C4.68 1 3.36 1 2 1 C2 2.32 2 3.64 2 5 C2.99 5 3.98 5 5 5 C5 5.66 5 6.32 5 7 C4.34 7 3.68 7 3 7 C2.67 8.65 2.34 10.3 2 12 C1.34 12 0.68 12 0 12 C0 8.04 0 4.08 0 0 Z " fill="#E82C3E" transform="translate(166,705)"/>
<path d="M0 0 C1.32 0.33 2.64 0.66 4 1 C4.8125 3.6875 4.8125 3.6875 5 7 C2.75 9.875 2.75 9.875 0 12 C-0.99 12 -1.98 12 -3 12 C-3 11.01 -3 10.02 -3 9 C-1.68 9 -0.36 9 1 9 C0.67 6.03 0.34 3.06 0 0 Z " fill="#DE4452" transform="translate(474,705)"/>
<path d="M0 0 C1.32 0 2.64 0 4 0 C4 4.29 4 8.58 4 13 C3.01 13.33 2.02 13.66 1 14 C0.875 7.25 0.875 7.25 2 5 C1.34 5 0.68 5 0 5 C0 3.35 0 1.7 0 0 Z " fill="#EC6371" transform="translate(256,703)"/>
<path d="M0 0 C2.64 0 5.28 0 8 0 C8 0.33 8 0.66 8 1 C6.02 1 4.04 1 2 1 C2 4.3 2 7.6 2 11 C3.98 11 5.96 11 8 11 C8 11.66 8 12.32 8 13 C5.66705225 13.04241723 3.33297433 13.04092937 1 13 C0 12 0 12 -0.09765625 9.27734375 C-0.08605469 8.17519531 -0.07445312 7.07304688 -0.0625 5.9375 C-0.05347656 4.83277344 -0.04445313 3.72804688 -0.03515625 2.58984375 C-0.02355469 1.73519531 -0.01195312 0.88054688 0 0 Z " fill="#CE6470" transform="translate(299,704)"/>
<path d="M0 0 C0.66 0.33 1.32 0.66 2 1 C1.67 3.31 1.34 5.62 1 8 C2.65 8 4.3 8 6 8 C6.33 7.34 6.66 6.68 7 6 C6.49396008 8.16874252 6.00016187 9.99967627 5 12 C0.125 11.125 0.125 11.125 -1 10 C-1.0979057 8.50261876 -1.12974864 7.00057108 -1.125 5.5 C-1.12757813 4.6853125 -1.13015625 3.870625 -1.1328125 3.03125 C-1 1 -1 1 0 0 Z " fill="#E33848" transform="translate(399,705)"/>
<path d="M0 0 C2 2 2 2 2 5 C2.66 5 3.32 5 4 5 C4.33 6.98 4.66 8.96 5 11 C3.68 10.67 2.36 10.34 1 10 C1 9.01 1 8.02 1 7 C-0.65 7.33 -2.3 7.66 -4 8 C-3.67 6.02 -3.34 4.04 -3 2 C-2.67 2.99 -2.34 3.98 -2 5 C-1.01 5 -0.02 5 1 5 C0.67 3.35 0.34 1.7 0 0 Z " fill="#E33C4B" transform="translate(223,706)"/>
<path d="M0 0 C0.99 0.33 1.98 0.66 3 1 C2.34 1 1.68 1 1 1 C1 2.98 1 4.96 1 7 C1.66 6.67 2.32 6.34 3 6 C3.65555119 3.47266765 3.65555119 3.47266765 4 1 C4.66 2.32 5.32 3.64 6 5 C6.66 3.68 7.32 2.36 8 1 C8.36 6.4 8.36 6.4 6.875 8.875 C4.21965017 10.4682099 2.03210482 10.20214032 -1 10 C-0.67 9.34 -0.34 8.68 0 8 C0.0689472 6.62657169 0.08467708 5.24997898 0.0625 3.875 C0.041875 2.59625 0.02125 1.3175 0 0 Z " fill="#F38E98" transform="translate(97,706)"/>
<path d="M0 0 C2.64 0 5.28 0 8 0 C8 2.31 8 4.62 8 7 C7.67 5.68 7.34 4.36 7 3 C6.34 3 5.68 3 5 3 C5 2.34 5 1.68 5 1 C4.01 1 3.02 1 2 1 C2 3.64 2 6.28 2 9 C3.32 9.33 4.64 9.66 6 10 C4.02 10 2.04 10 0 10 C0 6.7 0 3.4 0 0 Z " fill="#F7162A" transform="translate(384,705)"/>
<path d="M0 0 C0.99 0 1.98 0 3 0 C3.33 1.98 3.66 3.96 4 6 C4.66 6 5.32 6 6 6 C6 7.32 6 8.64 6 10 C5.34 10 4.68 10 4 10 C3.34 10.66 2.68 11.32 2 12 C1.01 8.37 0.02 4.74 -1 1 C-0.67 0.67 -0.34 0.34 0 0 Z " fill="#F59AA5" transform="translate(37,703)"/>
<path d="M0 0 C3.93846154 4.30769231 3.93846154 4.30769231 4.25 7.8125 C4.1675 8.534375 4.085 9.25625 4 10 C2.68 9.34 1.36 8.68 0 8 C0 7.34 0 6.68 0 6 C-1.65 6.66 -3.3 7.32 -5 8 C-4.67 6.35 -4.34 4.7 -4 3 C-2.02 3.495 -2.02 3.495 0 4 C0 2.68 0 1.36 0 0 Z " fill="#E73D4B" transform="translate(362,707)"/>
<path d="M0 0 C5.625 -0.25 5.625 -0.25 9 2 C9.375 4.5 9.375 4.5 9 7 C8.01 7.66 7.02 8.32 6 9 C6 8.34 6 7.68 6 7 C4.68 7 3.36 7 2 7 C2 5.68 2 4.36 2 3 C3.65 3.33 5.3 3.66 7 4 C7 3.67 7 3.34 7 3 C4.69 2.34 2.38 1.68 0 1 C0 0.67 0 0.34 0 0 Z M3 4 C3 4.66 3 5.32 3 6 C3.99 5.67 4.98 5.34 6 5 C5.01 4.67 4.02 4.34 3 4 Z " fill="#F58E99" transform="translate(431,703)"/>
<path d="M0 0 C0.33 0 0.66 0 1 0 C1 6.27 1 12.54 1 19 C0.67 19 0.34 19 0 19 C-0.04898438 18.31292969 -0.09796875 17.62585938 -0.1484375 16.91796875 C-0.22320312 16.01691406 -0.29796875 15.11585938 -0.375 14.1875 C-0.44460937 13.29417969 -0.51421875 12.40085937 -0.5859375 11.48046875 C-0.86645036 8.75601501 -0.86645036 8.75601501 -3 6 C-2.64111965 3.03923709 -2.15341979 2.15341979 0 0 Z " fill="#F9F0E0" transform="translate(124,258)"/>
<path d="M0 0 C0.33 0 0.66 0 1 0 C1 4.29 1 8.58 1 13 C0.01 12.67 -0.98 12.34 -2 12 C-2.33 10.02 -2.66 8.04 -3 6 C-2.01 6 -1.02 6 0 6 C0 4.02 0 2.04 0 0 Z " fill="#ED3645" transform="translate(24,704)"/>
<path d="M0 0 C0.33 0 0.66 0 1 0 C1.28571429 7.42857143 1.28571429 7.42857143 -1 11 C-1.99 10.67 -2.98 10.34 -4 10 C-4 6 -4 6 -2.5625 4.4375 C-2.046875 3.963125 -1.53125 3.48875 -1 3 C-0.67 2.01 -0.34 1.02 0 0 Z " fill="#E43949" transform="translate(462,706)"/>
<path d="M0 0 C1.32 0.33 2.64 0.66 4 1 C4.25 6.625 4.25 6.625 2 10 C1.34 9.67 0.68 9.34 0 9 C0 6 0 3 0 0 Z " fill="#F67B88" transform="translate(404,706)"/>
<path d="M0 0 C1.32 0.33 2.64 0.66 4 1 C3.67 2.65 3.34 4.3 3 6 C1.02 6.33 -0.96 6.66 -3 7 C-3.33 6.01 -3.66 5.02 -4 4 C-2.35 4 -0.7 4 1 4 C0.67 2.68 0.34 1.36 0 0 Z " fill="#D54452" transform="translate(80,710)"/>
<path d="M0 0 C2.59579847 0.9921957 3.76451254 1.53693324 5.046875 4.05859375 C5.27890625 4.84363281 5.5109375 5.62867188 5.75 6.4375 C6.11351562 7.61119141 6.11351562 7.61119141 6.484375 8.80859375 C7 11 7 11 7 14 C5.68 13.67 4.36 13.34 3 13 C3.20625 12.46375 3.4125 11.9275 3.625 11.375 C4.1314747 8.16732692 3.15400225 5.98682934 2 3 C1.01 3 0.02 3 -1 3 C-0.67 2.01 -0.34 1.02 0 0 Z " fill="#DE8F98" transform="translate(156,703)"/>
<path d="M0 0 C1.32 1.32 2.64 2.64 4 4 C3.01 6.97 2.02 9.94 1 13 C0.67 13 0.34 13 0 13 C0 8.71 0 4.42 0 0 Z " fill="#F8F6F1" transform="translate(355,257)"/>
<path d="M0 0 C1.875 0.1875 1.875 0.1875 4 1 C5.5225431 3.68257593 6.12235992 5.24544717 5.625 8.3125 C5.41875 8.869375 5.2125 9.42625 5 10 C4.34 8.35 3.68 6.7 3 5 C2.01 5.99 1.02 6.98 0 8 C0 5.36 0 2.72 0 0 Z " fill="#F4707E" transform="translate(446,703)"/>
<path d="M0 0 C1.32 0 2.64 0 4 0 C4.66 2.64 5.32 5.28 6 8 C5.195625 7.67 4.39125 7.34 3.5625 7 C1.30318875 5.93940959 1.30318875 5.93940959 0 6 C0 4.02 0 2.04 0 0 Z " fill="#F57581" transform="translate(359,703)"/>
<path d="M0 0 C0.185625 0.9590625 0.185625 0.9590625 0.375 1.9375 C0.684375 2.9584375 0.684375 2.9584375 1 4 C1.66 4.33 2.32 4.66 3 5 C2.01 5 1.02 5 0 5 C0 6.65 0 8.3 0 10 C-0.99 10 -1.98 10 -3 10 C-2.25 3.375 -2.25 3.375 0 0 Z " fill="#D93B49" transform="translate(110,707)"/>
<path d="M0 0 C0.33 0 0.66 0 1 0 C1.33 2.31 1.66 4.62 2 7 C3.65 7 5.3 7 7 7 C6.67 7.99 6.34 8.98 6 10 C1.125 9.125 1.125 9.125 0 8 C-0.14115161 5.32941149 -0.04247107 2.67567762 0 0 Z " fill="#D92735" transform="translate(330,707)"/>
<path d="M0 0 C0 0.99 0 1.98 0 3 C-3 3 -6 3 -9 3 C-8.67 2.01 -8.34 1.02 -8 0 C-5.13822943 -1.43088528 -3.06624227 -0.59991697 0 0 Z " fill="#F58C97" transform="translate(281,704)"/>
<path d="M0 0 C0.33 0 0.66 0 1 0 C1.29296875 6.0546875 1.29296875 6.0546875 1 8 C0.01 8.66 -0.98 9.32 -2 10 C-2 9.34 -2 8.68 -2 8 C-3.65 8 -5.3 8 -7 8 C-6.67 7.34 -6.34 6.68 -6 6 C-5.01 6.33 -4.02 6.66 -3 7 C-2.67 6.34 -2.34 5.68 -2 5 C-1.34 5.33 -0.68 5.66 0 6 C0 4.02 0 2.04 0 0 Z " fill="#F69CA6" transform="translate(339,706)"/>
<path d="M0 0 C0.33 0 0.66 0 1 0 C1.33 4.29 1.66 8.58 2 13 C0.68 12.67 -0.64 12.34 -2 12 C-2 10.68 -2 9.36 -2 8 C-1.34 8 -0.68 8 0 8 C0 5.36 0 2.72 0 0 Z " fill="#D9222F" transform="translate(212,704)"/>
<path d="M0 0 C2.475 0.495 2.475 0.495 5 1 C5 3.31 5 5.62 5 8 C2.20127563 5.47211993 0.54226981 3.79588866 0 0 Z " fill="#F9F6F1" transform="translate(337,201)"/>
<path d="M0 0 C2.97 0.495 2.97 0.495 6 1 C3.47211993 3.79872437 1.79588866 5.45773019 -2 6 C-1.34 4.02 -0.68 2.04 0 0 Z " fill="#F9F7F2" transform="translate(180,160)"/>
<path d="M0 0 C0.78375 0.04125 1.5675 0.0825 2.375 0.125 C2.375 1.445 2.375 2.765 2.375 4.125 C0.065 4.125 -2.245 4.125 -4.625 4.125 C-4.625 0.73492581 -3.1763743 0.15125592 0 0 Z " fill="#AA6C75" transform="translate(197.625,712.875)"/>
<path d="M0 0 C2.00720923 0.28674418 4.0085944 0.61866701 6 1 C6 1.99 6 2.98 6 4 C4.02 4.33 2.04 4.66 0 5 C-0.5625 3.0625 -0.5625 3.0625 -1 1 C-0.67 0.67 -0.34 0.34 0 0 Z " fill="#F5828D" transform="translate(77,703)"/>
<path d="M0 0 C0.33 0 0.66 0 1 0 C1.49230769 7.26153846 1.49230769 7.26153846 -1 11 C-1.66 11.66 -2.32 12.32 -3 13 C-2.45144652 8.428721 -1.58255197 4.32564205 0 0 Z " fill="#EBCD94" transform="translate(131,225)"/>
<path d="M0 0 C0.33 1.65 0.66 3.3 1 5 C-4.875 2.25 -4.875 2.25 -6 0 C-3 -1 -3 -1 0 0 Z " fill="#F9F7EF" transform="translate(299,161)"/>
<path d="M0 0 C0.33 0 0.66 0 1 0 C1 1.98 1 3.96 1 6 C-0.65 6.33 -2.3 6.66 -4 7 C-2.92598892 4.08482708 -2.22189824 2.22189824 0 0 Z " fill="#FBF8F0" transform="translate(340,316)"/>
<path d="M0 0 C-0.66 1.98 -1.32 3.96 -2 6 C-2.99 5.67 -3.98 5.34 -5 5 C-5 3.68 -5 2.36 -5 1 C-3 0 -3 0 0 0 Z " fill="#F9F6F1" transform="translate(143,202)"/>
<path d="M0 0 C0.77321882 2.98241547 1.41196203 5.97580475 2 9 C0.68 9.33 -0.64 9.66 -2 10 C-1.54177532 6.53058454 -1.10868317 3.32604951 0 0 Z " fill="#DF8892" transform="translate(219,707)"/>
<path d="M0 0 C2 3 2 3 2 6 C2.66 6 3.32 6 4 6 C4 7.32 4 8.64 4 10 C3.01 10 2.02 10 1 10 C0.67 6.7 0.34 3.4 0 0 Z " fill="#D32E3C" transform="translate(449,707)"/>
<path d="M0 0 C0.99 0 1.98 0 3 0 C2.6875 3.375 2.6875 3.375 2 7 C1.01 7.66 0.02 8.32 -1 9 C-1.09765625 2.84765625 -1.09765625 2.84765625 -1 1 C-0.67 0.67 -0.34 0.34 0 0 Z " fill="#F36B79" transform="translate(330,705)"/>
<path d="M0 0 C0 0.99 0 1.98 0 3 C-1.65 3 -3.3 3 -5 3 C-5 2.34 -5 1.68 -5 1 C-5.66 0.67 -6.32 0.34 -7 0 C-4.3333581 -1.33332095 -2.83319697 -0.67102033 0 0 Z " fill="#F4808C" transform="translate(149,704)"/>
<path d="M0 0 C1.32 0.33 2.64 0.66 4 1 C3.34 2.32 2.68 3.64 2 5 C0.68 4.67 -0.64 4.34 -2 4 C-1.34 2.68 -0.68 1.36 0 0 Z " fill="#F8F6F1" transform="translate(293,355)"/>
<path d="M0 0 C3.875 1.75 3.875 1.75 5 4 C2.36 4 -0.28 4 -3 4 C-2.01 2.68 -1.02 1.36 0 0 Z " fill="#FBFAF9" transform="translate(238,144)"/>
<path d="M0 0 C0.33 0 0.66 0 1 0 C1 1.98 1 3.96 1 6 C-0.32 6 -1.64 6 -3 6 C-3 4.35 -3 2.7 -3 1 C-2.67 1.66 -2.34 2.32 -2 3 C-1.34 3 -0.68 3 0 3 C0 2.01 0 1.02 0 0 Z " fill="#DC2B3B" transform="translate(43,710)"/>
<path d="M0 0 C-0.33 0.66 -0.66 1.32 -1 2 C-3.5625 2.625 -3.5625 2.625 -6 3 C-6 2.34 -6 1.68 -6 1 C-6.66 0.67 -7.32 0.34 -8 0 C-5.13822943 -1.43088528 -3.06624227 -0.59991697 0 0 Z " fill="#F68A95" transform="translate(477,704)"/>
<path d="M0 0 C4.875 2.75 4.875 2.75 6 5 C4.02 5 2.04 5 0 5 C0 3.35 0 1.7 0 0 Z " fill="#FAF8F4" transform="translate(171,367)"/>
<path d="M0 0 C0.66 0 1.32 0 2 0 C3.0625 1.8125 3.0625 1.8125 4 4 C3.67 4.99 3.34 5.98 3 7 C2.01 6.67 1.02 6.34 0 6 C0 4.02 0 2.04 0 0 Z " fill="#F7F4EE" transform="translate(133,317)"/>
<path d="M0 0 C0.33 0 0.66 0 1 0 C1 1.98 1 3.96 1 6 C2.65 6 4.3 6 6 6 C3.35261084 7.4606285 2.10551666 8 -1 8 C-0.67 5.36 -0.34 2.72 0 0 Z " fill="#F4939E" transform="translate(152,54)"/>
<path d="M0 0 C2.64 0 5.28 0 8 0 C8 0.66 8 1.32 8 2 C5.6875 2.6875 5.6875 2.6875 3 3 C1.1875 1.5625 1.1875 1.5625 0 0 Z " fill="#CD4553" transform="translate(141,714)"/>
<path d="M0 0 C0.99 0 1.98 0 3 0 C2.67 2.31 2.34 4.62 2 7 C0.68 7 -0.64 7 -2 7 C-1.67 6.01 -1.34 5.02 -1 4 C-0.01 4 0.98 4 2 4 C2 3.01 2 2.02 2 1 C1.34 0.67 0.68 0.34 0 0 Z " fill="#C21527" transform="translate(277,710)"/>
<path d="M0 0 C0.99 0 1.98 0 3 0 C2.67 2.31 2.34 4.62 2 7 C1.01 6.67 0.02 6.34 -1 6 C-0.67 4.02 -0.34 2.04 0 0 Z " fill="#F596A1" transform="translate(462,703)"/>
<path d="M0 0 C0.99 0 1.98 0 3 0 C3 2.31 3 4.62 3 7 C2.67 6.34 2.34 5.68 2 5 C1.34 5 0.68 5 0 5 C-0.5625 3.0625 -0.5625 3.0625 -1 1 C-0.67 0.67 -0.34 0.34 0 0 Z " fill="#F5717D" transform="translate(37,703)"/>
<path d="M0 0 C0.95904856 3.83619425 0.91892116 5.32431536 0 9 C-0.99 9.33 -1.98 9.66 -3 10 C-2.01 6.7 -1.02 3.4 0 0 Z " fill="#EDCF99" transform="translate(333,292)"/>
<path d="M0 0 C0.66 0.99 1.32 1.98 2 3 C1.06810009 6.10633303 -0.19193628 8.28790442 -2 11 C-1.125 3.375 -1.125 3.375 0 0 Z " fill="#F8858F" transform="translate(237,15)"/>
<path d="M0 0 C1.125 1.75 1.125 1.75 2 4 C1.375 6.1875 1.375 6.1875 0 8 C-2.125 8.75 -2.125 8.75 -4 9 C-3.2884375 7.88625 -3.2884375 7.88625 -2.5625 6.75 C-1.22130673 4.38949985 -0.487688 2.63351523 0 0 Z " fill="#F66D7A" transform="translate(234,26)"/>
</svg>
