<?xml version="1.0" standalone="no"?>
<!DOCTYPE svg PUBLIC "-//W3C//DTD SVG 20010904//EN"
 "http://www.w3.org/TR/2001/REC-SVG-20010904/DTD/svg10.dtd">
<svg version="1.0" xmlns="http://www.w3.org/2000/svg"
 width="480.000000pt" height="718.000000pt" viewBox="0 0 480.000000 718.000000"
 preserveAspectRatio="xMidYMid meet">
<metadata>
Created by potrace 1.16, written by Peter Selinger 2001-2019
</metadata>
<g transform="translate(0.000000,718.000000) scale(0.100000,-0.100000)"
fill="#000000" stroke="none">
<path d="M0 3590 l0 -3590 2400 0 2400 0 0 3590 0 3590 -2400 0 -2400 0 0
-3590z m2416 2351 c25 23 29 20 36 -26 2 -13 12 -21 31 -23 30 -4 34 -14 12
-32 -8 -7 -15 -18 -15 -25 0 -7 7 -18 15 -25 22 -18 18 -30 -10 -30 -27 0 -33
-8 -37 -55 -3 -29 -3 -30 60 -37 91 -10 208 -41 313 -84 97 -38 101 -38 115
14 5 16 0 27 -17 41 l-24 19 28 13 c25 11 28 18 25 46 -3 27 -1 32 11 27 39
-16 50 -15 63 5 17 28 26 26 38 -5 9 -22 15 -25 40 -22 32 5 36 -2 19 -34 -10
-18 -8 -24 16 -41 l27 -20 -31 -13 c-27 -11 -30 -16 -25 -43 7 -34 6 -35 -30
-21 -21 8 -28 5 -46 -17 -11 -14 -20 -31 -20 -37 0 -6 28 -29 61 -51 59 -39
210 -187 260 -254 l25 -34 28 18 c24 16 27 24 23 52 -5 31 -4 33 22 33 22 0
31 7 41 30 l12 30 20 -26 c12 -14 26 -23 34 -20 8 3 21 9 29 12 11 5 15 -1 15
-25 0 -27 5 -34 30 -43 l30 -10 -26 -20 c-14 -12 -23 -26 -20 -34 3 -8 9 -21
12 -29 5 -11 -1 -15 -25 -15 -27 0 -34 -5 -43 -32 l-11 -31 -22 27 c-22 27
-22 27 -57 10 l-35 -16 43 -102 c42 -98 78 -229 90 -329 5 -44 8 -48 27 -43
12 3 30 6 40 6 12 0 17 8 17 30 0 35 2 36 36 14 23 -15 26 -15 44 1 23 21 40
12 40 -21 0 -20 5 -24 30 -24 33 0 38 -11 15 -30 -8 -7 -15 -18 -15 -25 0 -7
7 -18 15 -25 22 -19 18 -28 -15 -35 -25 -5 -30 -11 -30 -36 0 -33 -6 -36 -32
-12 -18 16 -21 16 -47 0 -32 -19 -41 -14 -41 20 0 19 -5 23 -28 23 -15 0 -33
5 -39 11 -8 8 -13 -7 -18 -53 -14 -128 -49 -248 -105 -358 l-32 -64 22 -18
c29 -24 57 -23 72 2 17 27 24 25 32 -10 5 -25 10 -30 36 -30 33 0 35 -2 19
-32 -9 -16 -7 -24 12 -44 l22 -23 -27 -10 c-20 -8 -26 -17 -26 -41 0 -34 0
-34 -35 -18 -22 10 -29 8 -50 -12 l-24 -23 -7 27 c-5 22 -12 26 -40 26 l-35 0
16 30 c14 28 14 30 -12 55 -15 14 -30 25 -34 25 -3 0 -31 -29 -62 -64 -60 -68
-191 -173 -261 -208 -53 -27 -51 -23 -36 -58 10 -25 18 -30 47 -30 33 0 34 -1
28 -29 -5 -23 -1 -31 21 -46 l27 -18 -27 -14 c-25 -13 -27 -19 -22 -48 l7 -34
-31 11 c-17 5 -32 9 -34 7 -1 -2 -10 -15 -19 -28 l-16 -24 -12 27 c-11 24 -17
27 -47 21 l-33 -6 7 35 c5 32 3 37 -20 47 l-26 12 29 18 c27 16 29 21 21 50
-5 17 -12 34 -15 37 -3 3 -34 -1 -68 -10 -94 -25 -233 -41 -291 -33 -59 7
-113 35 -141 73 -19 26 -20 47 -25 557 l-5 530 -177 3 -178 2 0 40 0 40 178 2
177 3 3 178 2 177 40 0 40 0 0 -180 0 -180 180 0 180 0 0 -40 0 -40 -180 0
-180 0 0 -509 c0 -499 0 -509 21 -535 19 -24 26 -26 93 -26 215 0 494 134 636
305 141 169 194 327 193 575 -1 123 -5 160 -27 244 -92 352 -364 620 -721 712
-91 23 -113 25 -240 21 -159 -6 -238 -24 -373 -87 -403 -189 -632 -611 -567
-1045 39 -261 145 -475 325 -655 131 -133 261 -215 430 -276 119 -42 182 -78
233 -133 81 -87 81 -87 85 -413 l3 -286 34 -6 c39 -8 81 -47 90 -85 3 -15 25
-44 50 -65 41 -34 45 -41 45 -83 0 -41 -4 -49 -44 -87 -25 -22 -51 -58 -59
-78 -12 -29 -23 -39 -54 -47 -21 -6 -44 -11 -50 -11 -10 0 -13 -58 -15 -237
l-3 -238 -100 0 -100 0 -3 236 -2 237 -44 6 c-46 7 -69 25 -81 65 -4 13 -29
45 -56 71 -53 51 -60 79 -35 128 8 15 28 37 45 49 16 13 39 43 50 67 21 48 60
76 106 76 l27 0 -4 268 c-3 181 -8 277 -17 299 -17 43 -68 74 -237 143 -81 32
-175 77 -210 99 l-63 40 -21 -29 c-25 -35 -25 -47 0 -60 29 -15 25 -27 -11
-35 -28 -6 -31 -10 -27 -41 5 -39 5 -39 -28 -18 -23 16 -26 16 -49 -6 -26 -24
-24 -26 -40 25 -2 9 -16 15 -35 15 -29 0 -40 13 -20 25 16 10 12 37 -10 61
l-21 21 31 6 c26 6 30 11 30 38 0 26 3 30 18 24 39 -16 48 -15 71 9 l24 26
-89 92 c-93 96 -131 146 -194 254 l-37 63 -32 -20 c-21 -13 -31 -25 -27 -34 3
-8 9 -22 12 -31 6 -13 1 -14 -28 -9 -30 6 -35 4 -47 -21 l-12 -28 -22 28 c-20
24 -25 26 -51 16 -28 -10 -28 -10 -22 23 6 30 3 35 -21 46 l-28 13 27 19 c23
17 26 24 18 45 -14 36 -14 37 23 30 30 -6 35 -3 46 21 l13 27 17 -23 c16 -20
23 -23 56 -17 32 6 36 10 30 29 -31 95 -68 260 -78 350 -11 107 -11 107 -38
107 -32 0 -59 -23 -59 -51 0 -20 0 -20 -26 0 -27 21 -53 17 -71 -12 -5 -8 -10
0 -13 22 -4 29 -10 36 -39 43 l-33 9 22 24 c22 23 22 26 6 49 -22 34 -21 36
14 36 25 0 30 4 30 24 0 31 14 40 30 21 16 -19 44 -19 60 0 19 23 28 18 32
-17 3 -31 5 -33 42 -33 l40 0 12 85 c15 101 55 232 96 314 16 32 28 59 26 61
-2 1 -18 10 -36 19 -33 17 -33 17 -54 -9 l-21 -27 -14 32 c-12 29 -16 32 -44
26 -27 -5 -30 -4 -24 12 17 40 16 51 -4 64 -27 17 -26 22 4 36 19 9 25 19 25
43 0 24 4 30 15 25 8 -3 21 -9 29 -12 8 -3 22 6 34 20 l20 26 12 -30 c10 -23
19 -30 41 -30 27 0 28 -2 22 -31 -5 -26 -2 -35 18 -50 13 -10 27 -19 30 -19 4
0 26 26 50 58 61 81 133 155 217 224 l72 60 -21 30 c-21 29 -29 31 -73 13 -16
-7 -17 -5 -11 24 6 29 4 33 -24 44 l-31 11 22 23 c19 21 21 28 11 54 l-11 30
32 -7 c31 -5 34 -3 45 26 l11 32 19 -23 c17 -22 22 -23 50 -12 31 11 31 11 31
-23 0 -28 4 -35 25 -40 31 -8 32 -18 4 -38 -20 -13 -21 -18 -9 -46 7 -17 16
-32 20 -35 4 -2 43 11 87 29 106 45 214 75 304 84 l74 7 -3 30 c-4 47 -10 55
-37 55 -28 0 -32 12 -10 30 8 7 15 18 15 25 0 7 -7 18 -15 25 -22 18 -18 28
12 32 21 2 29 10 35 36 l9 33 26 -21 26 -20 23 21z m-266 -2906 c7 -8 18 -15
25 -15 7 0 18 7 25 15 19 23 30 18 30 -14 0 -25 5 -30 36 -36 l36 -6 -22 -24
c-22 -23 -22 -26 -6 -49 21 -34 21 -36 -13 -36 -24 0 -29 -5 -35 -31 -6 -31
-6 -31 -32 -14 -23 15 -27 15 -49 1 -33 -22 -35 -21 -35 14 0 25 -4 30 -23 30
-34 0 -37 8 -19 40 15 27 15 30 -1 48 -24 26 -21 32 13 32 26 0 31 5 37 30 6
33 15 37 33 15z"/>
</g>
</svg>
